<svg xmlns="http://www.w3.org/2000/svg" xmlns:xlink="http://www.w3.org/1999/xlink" version="1.1" class="marks" width="440" height="440" viewBox="0 0 440 440" style="background-color: white;"><g fill="none" stroke-miterlimit="10" transform="translate(20,20)"><g class="mark-group role-frame root" role="graphics-object" aria-roledescription="group mark container"><g transform="translate(0,0)"><path class="background" aria-hidden="true" d="M0,0h400v400h-400Z"></path><g><g class="mark-symbol role-mark Ma772" role="graphics-symbol" aria-roledescription="symbol mark container"><path transform="translate(307.55189875294485,199.7581537420236)" d="M16.578484666764748,0A16.578484666764748,16.578484666764748,0,1,1,-16.578484666764748,0A16.578484666764748,16.578484666764748,0,1,1,16.578484666764748,0" fill="rgb(197, 220, 238)" stroke="white" stroke-width="1"></path><path transform="translate(107.92978114330182,300.8450454882401)" d="M31.44854510165755,0A31.44854510165755,31.44854510165755,0,1,1,-31.44854510165755,0A31.44854510165755,31.44854510165755,0,1,1,31.44854510165755,0" fill="rgb(186, 214, 235)" stroke="white" stroke-width="1"></path><path transform="translate(284.3750723816396,165.52262829491863)" d="M24.78390119092953,0A24.78390119092953,24.78390119092953,0,1,1,-24.78390119092953,0A24.78390119092953,24.78390119092953,0,1,1,24.78390119092953,0" fill="rgb(173, 208, 231)" stroke="white" stroke-width="1"></path><path transform="translate(269.2971517224763,256.1833857523121)" d="M51.61395160225576,0A51.61395160225576,51.61395160225576,0,1,1,-51.61395160225576,0A51.61395160225576,51.61395160225576,0,1,1,51.61395160225576,0" fill="rgb(159, 201, 227)" stroke="white" stroke-width="1"></path><path transform="translate(95.12574252672445,223.90116148213957)" d="M45.99856662840846,0A45.99856662840846,45.99856662840846,0,1,1,-45.99856662840846,0A45.99856662840846,45.99856662840846,0,1,1,45.99856662840846,0" fill="rgb(144, 194, 222)" stroke="white" stroke-width="1"></path><path transform="translate(241.50534276843777,130.89715922614695)" d="M30.33440001344718,0A30.33440001344718,30.33440001344718,0,1,1,-30.33440001344718,0A30.33440001344718,30.33440001344718,0,1,1,30.33440001344718,0" fill="rgb(129, 185, 218)" stroke="white" stroke-width="1"></path><path transform="translate(145.61133293710148,279.7738583716783)" d="M11.834016902301434,0A11.834016902301434,11.834016902301434,0,1,1,-11.834016902301434,0A11.834016902301434,11.834016902301434,0,1,1,11.834016902301434,0" fill="rgb(113, 176, 214)" stroke="white" stroke-width="1"></path><path transform="translate(168.67679169292856,163.21411018863938)" d="M49.3669818917351,0A49.3669818917351,49.3669818917351,0,1,1,-49.3669818917351,0A49.3669818917351,49.3669818917351,0,1,1,49.3669818917351,0" fill="rgb(98, 167, 209)" stroke="white" stroke-width="1"></path><path transform="translate(208.90713323222874,215.46810206739084)" d="M16.578484666764748,0A16.578484666764748,16.578484666764748,0,1,1,-16.578484666764748,0A16.578484666764748,16.578484666764748,0,1,1,16.578484666764748,0" fill="rgb(85, 158, 204)" stroke="white" stroke-width="1"></path><path transform="translate(169.88995034719267,243.99458730678015)" d="M31.44854510165755,0A31.44854510165755,31.44854510165755,0,1,1,-31.44854510165755,0A31.44854510165755,31.44854510165755,0,1,1,31.44854510165755,0" fill="rgb(72, 148, 199)" stroke="white" stroke-width="1"></path><path transform="translate(239.23804336173873,185.96550846877093)" d="M24.78390119092953,0A24.78390119092953,24.78390119092953,0,1,1,-24.78390119092953,0A24.78390119092953,24.78390119092953,0,1,1,24.78390119092953,0" fill="rgb(60, 138, 194)" stroke="white" stroke-width="1"></path><path transform="translate(188.0491502857393,326.8993104739457)" d="M51.61395160225576,0A51.61395160225576,51.61395160225576,0,1,1,-51.61395160225576,0A51.61395160225576,51.61395160225576,0,1,1,51.61395160225576,0" fill="rgb(48, 128, 188)" stroke="white" stroke-width="1"></path><path transform="translate(101.85251014175365,95.21466141223145)" d="M45.99856662840846,0A45.99856662840846,45.99856662840846,0,1,1,-45.99856662840846,0A45.99856662840846,45.99856662840846,0,1,1,45.99856662840846,0" fill="rgb(38, 117, 182)" stroke="white" stroke-width="1"></path><path transform="translate(272.04010571192396,78.48795337240965)" d="M30.33440001344718,0A30.33440001344718,30.33440001344718,0,1,1,-30.33440001344718,0A30.33440001344718,30.33440001344718,0,1,1,30.33440001344718,0" fill="rgb(29, 107, 175)" stroke="white" stroke-width="1"></path><path transform="translate(206.91405659686853,266.32836043522576)" d="M11.834016902301434,0A11.834016902301434,11.834016902301434,0,1,1,-11.834016902301434,0A11.834016902301434,11.834016902301434,0,1,1,11.834016902301434,0" fill="rgb(20, 95, 166)" stroke="white" stroke-width="1"></path><path transform="translate(193.10405369192597,67.57256632902309)" d="M49.3669818917351,0A49.3669818917351,49.3669818917351,0,1,1,-49.3669818917351,0A49.3669818917351,49.3669818917351,0,1,1,49.3669818917351,0" fill="rgb(15, 85, 156)" stroke="white" stroke-width="1"></path></g><g class="mark-text role-mark Ma773" role="graphics-object" aria-roledescription="text mark container"><text text-anchor="middle" transform="translate(307.55189875294485,204.7581537420236)" font-family="sans-serif" font-size="15px" font-weight="bold" fill="white">A</text><text text-anchor="middle" transform="translate(107.92978114330182,305.8450454882401)" font-family="sans-serif" font-size="15px" font-weight="bold" fill="white">B</text><text text-anchor="middle" transform="translate(284.3750723816396,170.52262829491863)" font-family="sans-serif" font-size="15px" font-weight="bold" fill="white">C</text><text text-anchor="middle" transform="translate(269.2971517224763,261.1833857523121)" font-family="sans-serif" font-size="15px" font-weight="bold" fill="white">D</text><text text-anchor="middle" transform="translate(95.12574252672445,228.90116148213957)" font-family="sans-serif" font-size="15px" font-weight="bold" fill="white">E</text><text text-anchor="middle" transform="translate(241.50534276843777,135.89715922614695)" font-family="sans-serif" font-size="15px" font-weight="bold" fill="white">F</text><text text-anchor="middle" transform="translate(145.61133293710148,284.7738583716783)" font-family="sans-serif" font-size="15px" font-weight="bold" fill="white">G</text><text text-anchor="middle" transform="translate(168.67679169292856,168.21411018863938)" font-family="sans-serif" font-size="15px" font-weight="bold" fill="white">H</text><text text-anchor="middle" transform="translate(208.90713323222874,220.46810206739084)" font-family="sans-serif" font-size="15px" font-weight="bold" fill="white">I</text><text text-anchor="middle" transform="translate(169.88995034719267,248.99458730678015)" font-family="sans-serif" font-size="15px" font-weight="bold" fill="white">J</text><text text-anchor="middle" transform="translate(239.23804336173873,190.96550846877093)" font-family="sans-serif" font-size="15px" font-weight="bold" fill="white">K</text><text text-anchor="middle" transform="translate(188.0491502857393,331.8993104739457)" font-family="sans-serif" font-size="15px" font-weight="bold" fill="white">L</text><text text-anchor="middle" transform="translate(101.85251014175365,100.21466141223145)" font-family="sans-serif" font-size="15px" font-weight="bold" fill="white">M</text><text text-anchor="middle" transform="translate(272.04010571192396,83.48795337240965)" font-family="sans-serif" font-size="15px" font-weight="bold" fill="white">N</text><text text-anchor="middle" transform="translate(206.91405659686853,271.32836043522576)" font-family="sans-serif" font-size="15px" font-weight="bold" fill="white">O</text><text text-anchor="middle" transform="translate(193.10405369192597,72.57256632902309)" font-family="sans-serif" font-size="15px" font-weight="bold" fill="white">P</text></g></g><path class="foreground" aria-hidden="true" d="" display="none"></path></g></g></g></svg>