<svg xmlns="http://www.w3.org/2000/svg" xmlns:xlink="http://www.w3.org/1999/xlink" version="1.1" class="marks" width="410" height="411" viewBox="0 0 410 411" style="background-color: white;"><g fill="none" stroke-miterlimit="10" transform="translate(5,6)"><g class="mark-group role-frame root" role="graphics-object" aria-roledescription="group mark container"><g transform="translate(0,0)"><path class="background" aria-hidden="true" d="M0,0h400v400h-400Z"></path><g><g class="mark-arc role-mark Ma820" role="graphics-symbol" aria-roledescription="arc mark container"><path transform="translate(200,200)" d="M2.4492935982947065e-15,-40A40,40,0,1,1,-2.4492935982947065e-15,40A40,40,0,1,1,2.4492935982947065e-15,-40Z" fill="#4c78a8" stroke="#222" stroke-opacity="0.2" stroke-width="1"></path><path transform="translate(200,200)" d="M56.70438893853594,-56.43236903681469A80,80,0,0,1,71.58242200769018,-35.72053834298905L35.79121100384509,-17.860269171494526A40,40,0,0,0,28.35219446926797,-28.216184518407346Z" fill="#9ecae9" stroke="#222" stroke-opacity="0.2" stroke-width="1"></path><path transform="translate(200,200)" d="M88.89830809074938,-80.60453348666067A120,120,0,0,1,96.49640084185936,-71.33333459587602L64.33093389457291,-47.55555639725068A80,80,0,0,0,59.26553872716625,-53.73635565777378Z" fill="#f58518" stroke="#222" stroke-opacity="0.2" stroke-width="1"></path><path transform="translate(200,200)" d="M121.69449154440326,-103.87709433628362A160,160,0,0,1,124.3416279044103,-100.6933938750759L93.25622092830773,-75.52004540630692A120,120,0,0,0,91.27086865830245,-77.90782075221271Z" fill="#ffbf79" stroke="#222" stroke-opacity="0.2" stroke-width="1"></path><path transform="translate(200,200)" d="M119.05441001011214,-106.8926913177141A160,160,0,0,1,121.69449154440326,-103.87709433628362L91.27086865830245,-77.90782075221271A120,120,0,0,0,89.2908075075841,-80.16951848828558Z" fill="#ffbf79" stroke="#222" stroke-opacity="0.2" stroke-width="1"></path><path transform="translate(200,200)" d="M124.3416279044103,-100.6933938750759A160,160,0,0,1,128.66186778914582,-95.11111279450137L96.49640084185936,-71.33333459587602A120,120,0,0,0,93.25622092830773,-75.52004540630692Z" fill="#ffbf79" stroke="#222" stroke-opacity="0.2" stroke-width="1"></path><path transform="translate(200,200)" d="M118.5310774543325,-107.47271131554756A160,160,0,0,1,119.05441001011214,-106.8926913177141L89.2908075075841,-80.16951848828558A120,120,0,0,0,88.89830809074938,-80.60453348666067Z" fill="#ffbf79" stroke="#222" stroke-opacity="0.2" stroke-width="1"></path><path transform="translate(200,200)" d="M96.49640084185936,-71.33333459587602A120,120,0,0,1,107.37363301153528,-53.58080751448358L71.58242200769018,-35.72053834298905A80,80,0,0,0,64.33093389457291,-47.55555639725068Z" fill="#f58518" stroke="#222" stroke-opacity="0.2" stroke-width="1"></path><path transform="translate(200,200)" d="M130.76434401559698,-92.19916666744126A160,160,0,0,1,132.87008858082234,-89.1377560886767L99.65256643561676,-66.85331706650753A120,120,0,0,0,98.07325801169772,-69.14937500058095Z" fill="#ffbf79" stroke="#222" stroke-opacity="0.2" stroke-width="1"></path><path transform="translate(200,200)" d="M132.87008858082234,-89.1377560886767A160,160,0,0,1,136.1321091609487,-84.07168878636583L102.09908187071152,-63.05376658977437A120,120,0,0,0,99.65256643561676,-66.85331706650753Z" fill="#ffbf79" stroke="#222" stroke-opacity="0.2" stroke-width="1"></path><path transform="translate(200,200)" d="M139.29583436032217,-78.71893374444097A160,160,0,0,1,143.16484401538037,-71.4410766859781L107.37363301153528,-53.58080751448358A120,120,0,0,0,104.47187577024164,-59.03920030833073Z" fill="#ffbf79" stroke="#222" stroke-opacity="0.2" stroke-width="1"></path><path transform="translate(200,200)" d="M136.1321091609487,-84.07168878636583A160,160,0,0,1,139.29583436032217,-78.71893374444097L104.47187577024164,-59.03920030833073A120,120,0,0,0,102.09908187071152,-63.05376658977437Z" fill="#ffbf79" stroke="#222" stroke-opacity="0.2" stroke-width="1"></path><path transform="translate(200,200)" d="M128.66186778914582,-95.11111279450137A160,160,0,0,1,130.76434401559698,-92.19916666744126L98.07325801169772,-69.14937500058095A120,120,0,0,0,96.49640084185936,-71.33333459587602Z" fill="#ffbf79" stroke="#222" stroke-opacity="0.2" stroke-width="1"></path><path transform="translate(200,200)" d="M85.05658340780391,-84.64855355522204A120,120,0,0,1,88.89830809074938,-80.60453348666067L59.26553872716625,-53.73635565777378A80,80,0,0,0,56.70438893853594,-56.43236903681469Z" fill="#f58518" stroke="#222" stroke-opacity="0.2" stroke-width="1"></path><path transform="translate(200,200)" d="M113.40877787707188,-112.86473807362938A160,160,0,0,1,118.5310774543325,-107.47271131554756L88.89830809074938,-80.60453348666067A120,120,0,0,0,85.05658340780391,-84.64855355522204Z" fill="#ffbf79" stroke="#222" stroke-opacity="0.2" stroke-width="1"></path><path transform="translate(200,200)" d="M79.35831275468149,10.1122795021774A80,80,0,0,1,56.64483689219725,56.49214505979012L28.322418446098624,28.24607252989506A40,40,0,0,0,39.679156377340746,5.0561397510887Z" fill="#9ecae9" stroke="#222" stroke-opacity="0.2" stroke-width="1"></path><path transform="translate(200,200)" d="M111.01981810400562,45.54777698366302A120,120,0,0,1,105.24616868683755,57.647584309680624L70.1641124578917,38.43172287312042A80,80,0,0,0,74.01321206933709,30.365184655775348Z" fill="#f58518" stroke="#222" stroke-opacity="0.2" stroke-width="1"></path><path transform="translate(200,200)" d="M116.23966307055136,29.805045365587038A120,120,0,0,1,115.01006174619192,34.24449878647842L76.67337449746128,22.82966585765228A80,80,0,0,0,77.4931087137009,19.870030243724692Z" fill="#f58518" stroke="#222" stroke-opacity="0.2" stroke-width="1"></path><path transform="translate(200,200)" d="M96.79532358243543,70.92718331198286A120,120,0,0,1,84.96725533829583,84.73821758968522L56.64483689219722,56.49214505979015A80,80,0,0,0,64.53021572162362,47.28478887465524Z" fill="#f58518" stroke="#222" stroke-opacity="0.2" stroke-width="1"></path><path transform="translate(200,200)" d="M125.19238611944154,99.63366126827148A160,160,0,0,1,123.88344214439516,101.25656898422095L92.91258160829638,75.94242673816571A120,120,0,0,0,93.89428958958115,74.72524595120362Z" fill="#ffbf79" stroke="#222" stroke-opacity="0.2" stroke-width="1"></path><path transform="translate(200,200)" d="M122.51357067160257,102.90979059979787A160,160,0,0,1,121.1182035436617,104.54846134858292L90.83865265774628,78.41134601143719A120,120,0,0,0,91.88517800370192,77.1823429498484Z" fill="#ffbf79" stroke="#222" stroke-opacity="0.2" stroke-width="1"></path><path transform="translate(200,200)" d="M129.06043144324724,94.56957774931048A160,160,0,0,1,128.20066376624067,95.73186413047281L96.15049782468051,71.79889809785462A120,120,0,0,0,96.79532358243543,70.92718331198286Z" fill="#ffbf79" stroke="#222" stroke-opacity="0.2" stroke-width="1"></path><path transform="translate(200,200)" d="M119.59271733392927,106.29008401862748A160,160,0,0,1,113.28967378439441,112.98429011958035L84.9672553382958,84.73821758968526A120,120,0,0,0,89.69453800044695,79.71756301397062Z" fill="#ffbf79" stroke="#222" stroke-opacity="0.2" stroke-width="1"></path><path transform="translate(200,200)" d="M121.1182035436617,104.54846134858292A160,160,0,0,1,119.59271733392927,106.29008401862748L89.69453800044695,79.71756301397062A120,120,0,0,0,90.83865265774628,78.41134601143719Z" fill="#ffbf79" stroke="#222" stroke-opacity="0.2" stroke-width="1"></path><path transform="translate(200,200)" d="M128.20066376624067,95.73186413047281A160,160,0,0,1,127.32597221270305,96.89219163632316L95.49447915952729,72.66914372724237A120,120,0,0,0,96.15049782468051,71.79889809785462Z" fill="#ffbf79" stroke="#222" stroke-opacity="0.2" stroke-width="1"></path><path transform="translate(200,200)" d="M127.32597221270305,96.89219163632316A160,160,0,0,1,126.28147094416053,98.24963153202731L94.7111032081204,73.68722364902048A120,120,0,0,0,95.49447915952729,72.66914372724237Z" fill="#ffbf79" stroke="#222" stroke-opacity="0.2" stroke-width="1"></path><path transform="translate(200,200)" d="M126.28147094416053,98.24963153202731A160,160,0,0,1,125.19238611944154,99.63366126827148L93.89428958958115,74.72524595120362A120,120,0,0,0,94.7111032081204,73.68722364902048Z" fill="#ffbf79" stroke="#222" stroke-opacity="0.2" stroke-width="1"></path><path transform="translate(200,200)" d="M123.88344214439516,101.25656898422095A160,160,0,0,1,122.51357067160257,102.90979059979787L91.88517800370192,77.1823429498484A120,120,0,0,0,92.91258160829638,75.94242673816571Z" fill="#ffbf79" stroke="#222" stroke-opacity="0.2" stroke-width="1"></path><path transform="translate(200,200)" d="M118.99219515230935,15.519584170805874A120,120,0,0,1,118.88324355213311,16.33323000891746L79.25549570142208,10.888820005944975A80,80,0,0,0,79.32813010153956,10.346389447203917Z" fill="#f58518" stroke="#222" stroke-opacity="0.2" stroke-width="1"></path><path transform="translate(200,200)" d="M118.76026338568782,17.204645900513484A120,120,0,0,1,118.10648414761056,21.233426532008846L78.73765609840704,14.155617688005897A80,80,0,0,0,79.17350892379189,11.469763933675656Z" fill="#f58518" stroke="#222" stroke-opacity="0.2" stroke-width="1"></path><path transform="translate(200,200)" d="M119.03746913202224,15.168419253266098A120,120,0,0,1,118.99219515230935,15.519584170805874L79.32813010153956,10.346389447203917A80,80,0,0,0,79.35831275468149,10.1122795021774Z" fill="#f58518" stroke="#222" stroke-opacity="0.2" stroke-width="1"></path><path transform="translate(200,200)" d="M117.25637611814506,25.513570107691795A120,120,0,0,1,116.23966307055136,29.805045365587038L77.4931087137009,19.870030243724692A80,80,0,0,0,78.1709174120967,17.009046738461194Z" fill="#f58518" stroke="#222" stroke-opacity="0.2" stroke-width="1"></path><path transform="translate(200,200)" d="M118.10648414761056,21.233426532008846A120,120,0,0,1,117.25637611814506,25.513570107691795L78.1709174120967,17.009046738461194A80,80,0,0,0,78.73765609840704,14.155617688005897Z" fill="#f58518" stroke="#222" stroke-opacity="0.2" stroke-width="1"></path><path transform="translate(200,200)" d="M113.56927282099262,38.75590627131493A120,120,0,0,1,111.01981810400562,45.54777698366302L74.01321206933709,30.365184655775348A80,80,0,0,0,75.7128485473284,25.837270847543287Z" fill="#f58518" stroke="#222" stroke-opacity="0.2" stroke-width="1"></path><path transform="translate(200,200)" d="M105.24616868683755,57.647584309680624A120,120,0,0,1,96.79532358243543,70.92718331198286L64.53021572162362,47.28478887465524A80,80,0,0,0,70.1641124578917,38.43172287312042Z" fill="#f58518" stroke="#222" stroke-opacity="0.2" stroke-width="1"></path><path transform="translate(200,200)" d="M118.88324355213311,16.33323000891746A120,120,0,0,1,118.76026338568782,17.204645900513484L79.17350892379189,11.469763933675656A80,80,0,0,0,79.25549570142208,10.888820005944975Z" fill="#f58518" stroke="#222" stroke-opacity="0.2" stroke-width="1"></path><path transform="translate(200,200)" d="M115.01006174619192,34.24449878647842A120,120,0,0,1,113.56927282099262,38.75590627131493L75.7128485473284,25.837270847543287A80,80,0,0,0,76.67337449746128,22.82966585765228Z" fill="#f58518" stroke="#222" stroke-opacity="0.2" stroke-width="1"></path><path transform="translate(200,200)" d="M29.907048572546238,-74.19951782646139A80,80,0,0,1,43.985987182047204,-66.82239842762888L21.992993591023602,-33.41119921381444A40,40,0,0,0,14.953524286273119,-37.099758913230694Z" fill="#9ecae9" stroke="#222" stroke-opacity="0.2" stroke-width="1"></path><path transform="translate(200,200)" d="M53.442994269040604,-107.44229317898653A120,120,0,0,1,65.9789807730708,-100.23359764144332L43.985987182047204,-66.82239842762888A80,80,0,0,0,35.62866284602707,-71.62819545265768Z" fill="#f58518" stroke="#222" stroke-opacity="0.2" stroke-width="1"></path><path transform="translate(200,200)" d="M71.25732569205414,-143.25639090531536A160,160,0,0,1,71.93527771002155,-142.91716419234632L53.95145828251617,-107.18787314425974A120,120,0,0,0,53.442994269040604,-107.44229317898653Z" fill="#ffbf79" stroke="#222" stroke-opacity="0.2" stroke-width="1"></path><path transform="translate(200,200)" d="M75.2346355389549,-141.2081782876637A160,160,0,0,1,79.18876079991398,-139.02927807830264L59.39157059993549,-104.271958558727A120,120,0,0,0,56.42597665421618,-105.90613371574779Z" fill="#ffbf79" stroke="#222" stroke-opacity="0.2" stroke-width="1"></path><path transform="translate(200,200)" d="M79.18876079991398,-139.02927807830264A160,160,0,0,1,87.97197436409441,-133.64479685525777L65.9789807730708,-100.23359764144332A120,120,0,0,0,59.39157059993549,-104.271958558727Z" fill="#ffbf79" stroke="#222" stroke-opacity="0.2" stroke-width="1"></path><path transform="translate(200,200)" d="M71.93527771002155,-142.91716419234632A160,160,0,0,1,73.1666600576734,-142.29068787522556L54.87499504325504,-106.71801590641917A120,120,0,0,0,53.95145828251617,-107.18787314425974Z" fill="#ffbf79" stroke="#222" stroke-opacity="0.2" stroke-width="1"></path><path transform="translate(200,200)" d="M73.1666600576734,-142.29068787522556A160,160,0,0,1,75.2346355389549,-141.2081782876637L56.42597665421618,-105.90613371574779A120,120,0,0,0,54.87499504325504,-106.71801590641917Z" fill="#ffbf79" stroke="#222" stroke-opacity="0.2" stroke-width="1"></path><path transform="translate(200,200)" d="M45.8520163061788,-110.89451113854965A120,120,0,0,1,47.1307805933945,-110.3571000011205L31.42052039559633,-73.57140000074699A80,80,0,0,0,30.568010870785866,-73.92967409236644Z" fill="#f58518" stroke="#222" stroke-opacity="0.2" stroke-width="1"></path><path transform="translate(200,200)" d="M47.1307805933945,-110.3571000011205A120,120,0,0,1,48.69603691024424,-109.67541196291961L32.4640246068295,-73.11694130861308A80,80,0,0,0,31.42052039559633,-73.57140000074699Z" fill="#f58518" stroke="#222" stroke-opacity="0.2" stroke-width="1"></path><path transform="translate(200,200)" d="M44.86057285881935,-111.29927673969208A120,120,0,0,1,45.28884032712385,-111.12569883615706L30.19256021808257,-74.08379922410471A80,80,0,0,0,29.907048572546238,-74.19951782646139Z" fill="#f58518" stroke="#222" stroke-opacity="0.2" stroke-width="1"></path><path transform="translate(200,200)" d="M51.0785090344371,-108.58630629512604A120,120,0,0,1,53.442994269040604,-107.44229317898653L35.62866284602707,-71.62819545265768A80,80,0,0,0,34.0523393562914,-72.39087086341736Z" fill="#f58518" stroke="#222" stroke-opacity="0.2" stroke-width="1"></path><path transform="translate(200,200)" d="M45.28884032712385,-111.12569883615706A120,120,0,0,1,45.8520163061788,-110.89451113854965L30.568010870785866,-73.92967409236644A80,80,0,0,0,30.19256021808257,-74.08379922410471Z" fill="#f58518" stroke="#222" stroke-opacity="0.2" stroke-width="1"></path><path transform="translate(200,200)" d="M48.69603691024424,-109.67541196291961A120,120,0,0,1,51.0785090344371,-108.58630629512604L34.0523393562914,-72.39087086341736A80,80,0,0,0,32.4640246068295,-73.11694130861308Z" fill="#f58518" stroke="#222" stroke-opacity="0.2" stroke-width="1"></path><path transform="translate(200,200)" d="M2.1635940273513303,-79.97073752870365A80,80,0,0,1,14.828388822616978,-78.61373216509497L7.414194411308489,-39.30686608254749A40,40,0,0,0,1.0817970136756652,-39.985368764351826Z" fill="#9ecae9" stroke="#222" stroke-opacity="0.2" stroke-width="1"></path><path transform="translate(200,200)" d="M7.463800817508056,-119.76765705880935A120,120,0,0,1,14.399349454925549,-119.13294563333409L9.599566303283698,-79.42196375555606A80,80,0,0,0,4.975867211672037,-79.8451047058729Z" fill="#f58518" stroke="#222" stroke-opacity="0.2" stroke-width="1"></path><path transform="translate(200,200)" d="M3.2453910410269953,-119.95610629305547A120,120,0,0,1,4.610468753741667,-119.91139886545722L3.073645835827778,-79.94093257697148A80,80,0,0,0,2.1635940273513303,-79.97073752870365Z" fill="#f58518" stroke="#222" stroke-opacity="0.2" stroke-width="1"></path><path transform="translate(200,200)" d="M4.610468753741667,-119.91139886545722A120,120,0,0,1,7.463800817508056,-119.76765705880935L4.975867211672037,-79.8451047058729A80,80,0,0,0,3.073645835827778,-79.94093257697148Z" fill="#f58518" stroke="#222" stroke-opacity="0.2" stroke-width="1"></path><path transform="translate(200,200)" d="M14.399349454925549,-119.13294563333409A120,120,0,0,1,22.242583233925465,-117.92059824764246L14.828388822616978,-78.61373216509497A80,80,0,0,0,9.599566303283698,-79.42196375555606Z" fill="#f58518" stroke="#222" stroke-opacity="0.2" stroke-width="1"></path><path transform="translate(200,200)" d="M4.898587196589413e-15,-80A80,80,0,0,1,2.1635940273513303,-79.97073752870365L1.0817970136756652,-39.985368764351826A40,40,0,0,0,2.4492935982947065e-15,-40Z" fill="#9ecae9" stroke="#222" stroke-opacity="0.2" stroke-width="1"></path><path transform="translate(200,200)" d="M7.34788079488412e-15,-120A120,120,0,0,1,3.2453910410269953,-119.95610629305547L2.1635940273513303,-79.97073752870365A80,80,0,0,0,4.898587196589413e-15,-80Z" fill="#f58518" stroke="#222" stroke-opacity="0.2" stroke-width="1"></path><path transform="translate(200,200)" d="M14.828388822616978,-78.61373216509497A80,80,0,0,1,29.907048572546238,-74.19951782646139L14.953524286273119,-37.099758913230694A40,40,0,0,0,7.414194411308489,-39.30686608254749Z" fill="#9ecae9" stroke="#222" stroke-opacity="0.2" stroke-width="1"></path><path transform="translate(200,200)" d="M22.48973148709786,-117.8737119871867A120,120,0,0,1,23.32727861128786,-117.71082393982022L15.551519074191907,-78.47388262654681A80,80,0,0,0,14.993154324731906,-78.58247465812445Z" fill="#f58518" stroke="#222" stroke-opacity="0.2" stroke-width="1"></path><path transform="translate(200,200)" d="M23.32727861128786,-117.71082393982022A120,120,0,0,1,24.35980861550625,-117.50148817872865L16.239872410337497,-78.33432545248576A80,80,0,0,0,15.551519074191907,-78.47388262654681Z" fill="#f58518" stroke="#222" stroke-opacity="0.2" stroke-width="1"></path><path transform="translate(200,200)" d="M22.242583233925465,-117.92059824764246A120,120,0,0,1,22.48973148709786,-117.8737119871867L14.993154324731906,-78.58247465812445A80,80,0,0,0,14.828388822616978,-78.61373216509497Z" fill="#f58518" stroke="#222" stroke-opacity="0.2" stroke-width="1"></path><path transform="translate(200,200)" d="M37.0817018328469,-114.12689161271256A120,120,0,0,1,44.86057285881935,-111.29927673969208L29.907048572546238,-74.19951782646139A80,80,0,0,0,24.72113455523127,-76.08459440847503Z" fill="#f58518" stroke="#222" stroke-opacity="0.2" stroke-width="1"></path><path transform="translate(200,200)" d="M27.35829252179382,-116.8397356651065A120,120,0,0,1,29.52022482736503,-116.3123223314788L19.680149884910023,-77.54154822098586A80,80,0,0,0,18.238861681195882,-77.893157110071Z" fill="#f58518" stroke="#222" stroke-opacity="0.2" stroke-width="1"></path><path transform="translate(200,200)" d="M29.52022482736503,-116.3123223314788A120,120,0,0,1,37.0817018328469,-114.12689161271256L24.72113455523127,-76.08459440847503A80,80,0,0,0,19.680149884910023,-77.54154822098586Z" fill="#f58518" stroke="#222" stroke-opacity="0.2" stroke-width="1"></path><path transform="translate(200,200)" d="M25.65629523271283,-117.22522985659647A120,120,0,0,1,27.35829252179382,-116.8397356651065L18.238861681195882,-77.893157110071A80,80,0,0,0,17.104196821808554,-78.15015323773098Z" fill="#f58518" stroke="#222" stroke-opacity="0.2" stroke-width="1"></path><path transform="translate(200,200)" d="M24.35980861550625,-117.50148817872865A120,120,0,0,1,25.65629523271283,-117.22522985659647L17.104196821808554,-78.15015323773098A80,80,0,0,0,16.239872410337497,-78.33432545248576Z" fill="#f58518" stroke="#222" stroke-opacity="0.2" stroke-width="1"></path><path transform="translate(200,200)" d="M71.58242200769018,-35.72053834298905A80,80,0,0,1,79.35831275468149,10.1122795021774L39.679156377340746,5.0561397510887A40,40,0,0,0,35.79121100384509,-17.860269171494526Z" fill="#9ecae9" stroke="#222" stroke-opacity="0.2" stroke-width="1"></path><path transform="translate(200,200)" d="M111.7463409422126,-43.73505786010555A120,120,0,0,1,112.20447638178892,-42.54592201243937L74.80298425452594,-28.363948008292912A80,80,0,0,0,74.49756062814173,-29.156705240070366Z" fill="#f58518" stroke="#222" stroke-opacity="0.2" stroke-width="1"></path><path transform="translate(200,200)" d="M109.41910758266513,-49.26924898771194A120,120,0,0,1,109.74912703517322,-48.52967252122573L73.16608469011548,-32.35311501415048A80,80,0,0,0,72.94607172177676,-32.84616599180796Z" fill="#f58518" stroke="#222" stroke-opacity="0.2" stroke-width="1"></path><path transform="translate(200,200)" d="M117.46562386603675,-24.532166837904363A120,120,0,0,1,118.05443638151691,-21.52092123126652L78.70295758767794,-14.347280820844347A80,80,0,0,0,78.31041591069118,-16.35477789193624Z" fill="#f58518" stroke="#222" stroke-opacity="0.2" stroke-width="1"></path><path transform="translate(200,200)" d="M108.49609641826181,-51.269845542962535A120,120,0,0,1,108.79442965669003,-50.633704937279894L72.52961977112669,-33.75580329151993A80,80,0,0,0,72.33073094550788,-34.17989702864169Z" fill="#f58518" stroke="#222" stroke-opacity="0.2" stroke-width="1"></path><path transform="translate(200,200)" d="M113.95529284258551,-37.60573404629381A120,120,0,0,1,114.64959087900255,-35.43263060058252L76.4330605860017,-23.62175373372168A80,80,0,0,0,75.97019522839034,-25.070489364195872Z" fill="#f58518" stroke="#222" stroke-opacity="0.2" stroke-width="1"></path><path transform="translate(200,200)" d="M119.0492450006078,-15.075717720402631A120,120,0,0,1,119.48777153888287,-11.075759688244002L79.65851435925525,-7.383839792162668A80,80,0,0,0,79.36616333373853,-10.05047848026842Z" fill="#f58518" stroke="#222" stroke-opacity="0.2" stroke-width="1"></path><path transform="translate(200,200)" d="M116.12929208733485,-30.232226502433925A120,120,0,0,1,116.82583225412573,-27.417602341030396L77.88388816941716,-18.27840156068693A80,80,0,0,0,77.41952805822324,-20.154817668289283Z" fill="#f58518" stroke="#222" stroke-opacity="0.2" stroke-width="1"></path><path transform="translate(200,200)" d="M107.37363301153528,-53.58080751448358A120,120,0,0,1,107.64721193765497,-53.029027541994346L71.76480795843665,-35.35268502799623A80,80,0,0,0,71.58242200769018,-35.72053834298905Z" fill="#f58518" stroke="#222" stroke-opacity="0.2" stroke-width="1"></path><path transform="translate(200,200)" d="M118.59497100995424,-18.309365121382946A120,120,0,0,1,119.0492450006078,-15.075717720402631L79.36616333373853,-10.05047848026842A80,80,0,0,0,79.06331400663616,-12.206243414255297Z" fill="#f58518" stroke="#222" stroke-opacity="0.2" stroke-width="1"></path><path transform="translate(200,200)" d="M108.79442965669003,-50.633704937279894A120,120,0,0,1,109.10282788497844,-49.96571772226205L72.73521858998562,-33.310478481508035A80,80,0,0,0,72.52961977112669,-33.75580329151993Z" fill="#f58518" stroke="#222" stroke-opacity="0.2" stroke-width="1"></path><path transform="translate(200,200)" d="M119.48777153888287,-11.075759688244002A120,120,0,0,1,119.79319233140463,-7.042092803357335L79.86212822093643,-4.6947285355715564A80,80,0,0,0,79.65851435925525,-7.383839792162668Z" fill="#f58518" stroke="#222" stroke-opacity="0.2" stroke-width="1"></path><path transform="translate(200,200)" d="M115.37796522619931,-32.98371022583636A120,120,0,0,1,116.12929208733485,-30.232226502433925L77.41952805822324,-20.154817668289283A80,80,0,0,0,76.91864348413287,-21.989140150557574Z" fill="#f58518" stroke="#222" stroke-opacity="0.2" stroke-width="1"></path><path transform="translate(200,200)" d="M114.64959087900255,-35.43263060058252A120,120,0,0,1,115.37796522619931,-32.98371022583636L76.91864348413287,-21.989140150557574A80,80,0,0,0,76.4330605860017,-23.62175373372168Z" fill="#f58518" stroke="#222" stroke-opacity="0.2" stroke-width="1"></path><path transform="translate(200,200)" d="M113.2618178414875,-39.64543629778472A120,120,0,0,1,113.95529284258551,-37.60573404629381L75.97019522839034,-25.070489364195872A80,80,0,0,0,75.50787856099166,-26.43029086518981Z" fill="#f58518" stroke="#222" stroke-opacity="0.2" stroke-width="1"></path><path transform="translate(200,200)" d="M112.72044712553684,-41.15945577651696A120,120,0,0,1,113.2618178414875,-39.64543629778472L75.50787856099166,-26.43029086518981A80,80,0,0,0,75.1469647503579,-27.43963718434464Z" fill="#f58518" stroke="#222" stroke-opacity="0.2" stroke-width="1"></path><path transform="translate(200,200)" d="M110.44694934348975,-46.91983994768745A120,120,0,0,1,110.81774686291811,-46.03723471524113L73.87849790861208,-30.691489810160753A80,80,0,0,0,73.6312995623265,-31.2798932984583Z" fill="#f58518" stroke="#222" stroke-opacity="0.2" stroke-width="1"></path><path transform="translate(200,200)" d="M116.82583225412573,-27.417602341030396A120,120,0,0,1,117.46562386603675,-24.532166837904363L78.31041591069118,-16.35477789193624A80,80,0,0,0,77.88388816941716,-18.27840156068693Z" fill="#f58518" stroke="#222" stroke-opacity="0.2" stroke-width="1"></path><path transform="translate(200,200)" d="M107.92140356572054,-52.468758822797426A120,120,0,0,1,108.21041041920316,-51.87009810003842L72.1402736128021,-34.58006540002561A80,80,0,0,0,71.94760237714702,-34.97917254853162Z" fill="#f58518" stroke="#222" stroke-opacity="0.2" stroke-width="1"></path><path transform="translate(200,200)" d="M119.93624206745953,3.9112451643626924A120,120,0,0,1,119.03746913202225,15.168419253265991L79.35831275468149,10.112279502177328A80,80,0,0,0,79.9574947116397,2.607496776241795Z" fill="#f58518" stroke="#222" stroke-opacity="0.2" stroke-width="1"></path><path transform="translate(200,200)" d="M159.52417739063708,12.33032148163858A160,160,0,0,1,159.47491636885914,12.951874348733623L119.60618727664436,9.713905761550217A120,120,0,0,0,119.6431330429778,9.247741111228935Z" fill="#ffbf79" stroke="#222" stroke-opacity="0.2" stroke-width="1"></path><path transform="translate(200,200)" d="M159.75287465289324,8.889265444173436A160,160,0,0,1,159.73322186063217,9.235682650570906L119.79991639547413,6.92676198792818A120,120,0,0,0,119.81465598966994,6.666949083130078Z" fill="#ffbf79" stroke="#222" stroke-opacity="0.2" stroke-width="1"></path><path transform="translate(200,200)" d="M159.86081469217586,6.672325378292834A160,160,0,0,1,159.84794627331914,6.973813318556589L119.88595970498935,5.230359988917441A120,120,0,0,0,119.89561101913189,5.004244033719625Z" fill="#ffbf79" stroke="#222" stroke-opacity="0.2" stroke-width="1"></path><path transform="translate(200,200)" d="M159.90570142997302,5.492417517661929A160,160,0,0,1,159.89543866051858,5.783484724656931L119.92157899538893,4.337613543492698A120,120,0,0,0,119.92927607247977,4.119313138246447Z" fill="#ffbf79" stroke="#222" stroke-opacity="0.2" stroke-width="1"></path><path transform="translate(200,200)" d="M159.84794627331914,6.973813318556589A160,160,0,0,1,159.83427013368527,7.280528197330592L119.87570260026395,5.460396147997944A120,120,0,0,0,119.88595970498935,5.230359988917441Z" fill="#ffbf79" stroke="#222" stroke-opacity="0.2" stroke-width="1"></path><path transform="translate(200,200)" d="M159.4231444048214,13.574278178948159A160,160,0,0,1,159.36885001708998,14.197522468032302L119.52663751281749,10.648141851024226A120,120,0,0,0,119.56735830361605,10.180708634211118Z" fill="#ffbf79" stroke="#222" stroke-opacity="0.2" stroke-width="1"></path><path transform="translate(200,200)" d="M159.47491636885914,12.951874348733623A160,160,0,0,1,159.4231444048214,13.574278178948159L119.56735830361605,10.180708634211118A120,120,0,0,0,119.60618727664436,9.713905761550217Z" fill="#ffbf79" stroke="#222" stroke-opacity="0.2" stroke-width="1"></path><path transform="translate(200,200)" d="M159.63881595521246,10.744693593481532A160,160,0,0,1,159.60560668819912,11.227213086598763L119.70420501614933,8.420409814949071A120,120,0,0,0,119.72911196640933,8.058520195111148Z" fill="#ffbf79" stroke="#222" stroke-opacity="0.2" stroke-width="1"></path><path transform="translate(200,200)" d="M159.19018969450087,16.077422213427923A160,160,0,0,1,159.12523158231625,16.708102042848072L119.34392368673718,12.531076532136055A120,120,0,0,0,119.39264227087565,12.058066660070942Z" fill="#ffbf79" stroke="#222" stroke-opacity="0.2" stroke-width="1"></path><path transform="translate(200,200)" d="M158.9859303920777,17.985381212680046A160,160,0,0,1,158.9107205027847,18.63821100014288L119.18304037708852,13.978658250107161A120,120,0,0,0,119.23944779405826,13.489035909510035Z" fill="#ffbf79" stroke="#222" stroke-opacity="0.2" stroke-width="1"></path><path transform="translate(200,200)" d="M158.9107205027847,18.63821100014288A160,160,0,0,1,158.81718553680116,19.419103433713804L119.11288915260087,14.564327575285354A120,120,0,0,0,119.18304037708852,13.978658250107161Z" fill="#ffbf79" stroke="#222" stroke-opacity="0.2" stroke-width="1"></path><path transform="translate(200,200)" d="M159.60560668819912,11.227213086598763A160,160,0,0,1,159.5708620225196,11.710678605017318L119.67814651688971,8.783008953762987A120,120,0,0,0,119.70420501614933,8.420409814949071Z" fill="#ffbf79" stroke="#222" stroke-opacity="0.2" stroke-width="1"></path><path transform="translate(200,200)" d="M159.36885001708998,14.197522468032302A160,160,0,0,1,159.3119243455767,14.822643533096594L119.48394325918252,11.116982649822445A120,120,0,0,0,119.52663751281749,10.648141851024226Z" fill="#ffbf79" stroke="#222" stroke-opacity="0.2" stroke-width="1"></path><path transform="translate(200,200)" d="M159.0577748521576,17.338519518123245A160,160,0,0,1,158.9859303920777,17.985381212680046L119.23944779405826,13.489035909510035A120,120,0,0,0,119.2933311391182,13.003889638592433Z" fill="#ffbf79" stroke="#222" stroke-opacity="0.2" stroke-width="1"></path><path transform="translate(200,200)" d="M159.8845262913724,6.07768480454966A160,160,0,0,1,159.872946959529,6.37501611571539L119.90471021964674,4.781262086786542A120,120,0,0,0,119.91339471852929,4.558263603412245Z" fill="#ffbf79" stroke="#222" stroke-opacity="0.2" stroke-width="1"></path><path transform="translate(200,200)" d="M159.872946959529,6.37501611571539A160,160,0,0,1,159.86081469217586,6.672325378292834L119.89561101913189,5.004244033719625A120,120,0,0,0,119.90471021964674,4.781262086786542Z" fill="#ffbf79" stroke="#222" stroke-opacity="0.2" stroke-width="1"></path><path transform="translate(200,200)" d="M159.5708620225196,11.710678605017318A160,160,0,0,1,159.52417739063708,12.33032148163858L119.6431330429778,9.247741111228935A120,120,0,0,0,119.67814651688971,8.783008953762987Z" fill="#ffbf79" stroke="#222" stroke-opacity="0.2" stroke-width="1"></path><path transform="translate(200,200)" d="M159.12523158231625,16.708102042848072A160,160,0,0,1,159.0577748521576,17.338519518123245L119.2933311391182,13.003889638592433A120,120,0,0,0,119.34392368673718,12.531076532136055Z" fill="#ffbf79" stroke="#222" stroke-opacity="0.2" stroke-width="1"></path><path transform="translate(200,200)" d="M159.3119243455767,14.822643533096594A160,160,0,0,1,159.25234361874786,15.449629508058102L119.43925771406089,11.587222131043577A120,120,0,0,0,119.48394325918252,11.116982649822445Z" fill="#ffbf79" stroke="#222" stroke-opacity="0.2" stroke-width="1"></path><path transform="translate(200,200)" d="M159.66555725198896,10.339720857539277A160,160,0,0,1,159.63881595521246,10.744693593481532L119.72911196640933,8.058520195111148A120,120,0,0,0,119.74916793899172,7.7547906431544575Z" fill="#ffbf79" stroke="#222" stroke-opacity="0.2" stroke-width="1"></path><path transform="translate(200,200)" d="M159.77138302149106,8.550155986881142A160,160,0,0,1,159.75287465289324,8.889265444173436L119.81465598966994,6.666949083130078A120,120,0,0,0,119.82853726611829,6.412616990160856Z" fill="#ffbf79" stroke="#222" stroke-opacity="0.2" stroke-width="1"></path><path transform="translate(200,200)" d="M159.80458130615202,7.905428107664103A160,160,0,0,1,159.78830733972782,8.22780879120855L119.84123050479586,6.170856593406413A120,120,0,0,0,119.85343597961402,5.929071080748077Z" fill="#ffbf79" stroke="#222" stroke-opacity="0.2" stroke-width="1"></path><path transform="translate(200,200)" d="M158.81718553680116,19.419103433713804A160,160,0,0,1,158.71662550936298,20.22455900435462L119.03746913202225,15.168419253265967A120,120,0,0,0,119.11288915260087,14.564327575285354Z" fill="#ffbf79" stroke="#222" stroke-opacity="0.2" stroke-width="1"></path><path transform="translate(200,200)" d="M159.83427013368527,7.280528197330592A160,160,0,0,1,159.81980598043583,7.59141728373863L119.86485448532689,5.693562962803973A120,120,0,0,0,119.87570260026395,5.460396147997944Z" fill="#ffbf79" stroke="#222" stroke-opacity="0.2" stroke-width="1"></path><path transform="translate(200,200)" d="M159.68976782049336,9.958817873469087A160,160,0,0,1,159.66555725198896,10.339720857539277L119.74916793899172,7.7547906431544575A120,120,0,0,0,119.76732586537001,7.469113405101816Z" fill="#ffbf79" stroke="#222" stroke-opacity="0.2" stroke-width="1"></path><path transform="translate(200,200)" d="M159.25234361874786,15.449629508058102A160,160,0,0,1,159.19018969450087,16.077422213427923L119.39264227087565,12.058066660070942A120,120,0,0,0,119.43925771406089,11.587222131043577Z" fill="#ffbf79" stroke="#222" stroke-opacity="0.2" stroke-width="1"></path><path transform="translate(200,200)" d="M159.89543866051858,5.783484724656931A160,160,0,0,1,159.8845262913724,6.07768480454966L119.91339471852929,4.558263603412245A120,120,0,0,0,119.92157899538893,4.337613543492698Z" fill="#ffbf79" stroke="#222" stroke-opacity="0.2" stroke-width="1"></path><path transform="translate(200,200)" d="M159.78830733972782,8.22780879120855A160,160,0,0,1,159.77138302149106,8.550155986881142L119.82853726611829,6.412616990160856A120,120,0,0,0,119.84123050479586,6.170856593406413Z" fill="#ffbf79" stroke="#222" stroke-opacity="0.2" stroke-width="1"></path><path transform="translate(200,200)" d="M159.73322186063217,9.235682650570906A160,160,0,0,1,159.71250295070232,9.587304168633574L119.78437721302674,7.190478126475181A120,120,0,0,0,119.79991639547413,6.92676198792818Z" fill="#ffbf79" stroke="#222" stroke-opacity="0.2" stroke-width="1"></path><path transform="translate(200,200)" d="M159.81980598043583,7.59141728373863A160,160,0,0,1,159.80458130615202,7.905428107664103L119.85343597961402,5.929071080748077A120,120,0,0,0,119.86485448532689,5.693562962803973Z" fill="#ffbf79" stroke="#222" stroke-opacity="0.2" stroke-width="1"></path><path transform="translate(200,200)" d="M159.71250295070232,9.587304168633574A160,160,0,0,1,159.68976782049336,9.958817873469087L119.76732586537001,7.469113405101816A120,120,0,0,0,119.78437721302674,7.190478126475181Z" fill="#ffbf79" stroke="#222" stroke-opacity="0.2" stroke-width="1"></path><path transform="translate(200,200)" d="M159.9149894232794,5.21499355248359A160,160,0,0,1,159.90570142997302,5.492417517661929L119.92927607247977,4.119313138246447A120,120,0,0,0,119.93624206745953,3.9112451643626924Z" fill="#ffbf79" stroke="#222" stroke-opacity="0.2" stroke-width="1"></path><path transform="translate(200,200)" d="M108.21041041920316,-51.87009810003842A120,120,0,0,1,108.49609641826181,-51.269845542962535L72.33073094550788,-34.17989702864169A80,80,0,0,0,72.1402736128021,-34.58006540002561Z" fill="#f58518" stroke="#222" stroke-opacity="0.2" stroke-width="1"></path><path transform="translate(200,200)" d="M110.81774686291811,-46.03723471524113A120,120,0,0,1,111.2820964577082,-44.90317369604653L74.18806430513881,-29.935449130697688A80,80,0,0,0,73.87849790861208,-30.691489810160753Z" fill="#f58518" stroke="#222" stroke-opacity="0.2" stroke-width="1"></path><path transform="translate(200,200)" d="M109.10282788497844,-49.96571772226205A120,120,0,0,1,109.41910758266513,-49.26924898771194L72.94607172177676,-32.84616599180796A80,80,0,0,0,72.73521858998562,-33.310478481508035Z" fill="#f58518" stroke="#222" stroke-opacity="0.2" stroke-width="1"></path><path transform="translate(200,200)" d="M119.79319233140463,-7.042092803357335A120,120,0,0,1,119.93624206745953,3.9112451643626924L79.9574947116397,2.607496776241795A80,80,0,0,0,79.86212822093643,-4.6947285355715564Z" fill="#f58518" stroke="#222" stroke-opacity="0.2" stroke-width="1"></path><path transform="translate(200,200)" d="M111.2820964577082,-44.90317369604653A120,120,0,0,1,111.7463409422126,-43.73505786010555L74.49756062814173,-29.156705240070366A80,80,0,0,0,74.18806430513881,-29.935449130697688Z" fill="#f58518" stroke="#222" stroke-opacity="0.2" stroke-width="1"></path><path transform="translate(200,200)" d="M118.05443638151691,-21.52092123126652A120,120,0,0,1,118.59497100995424,-18.309365121382946L79.06331400663616,-12.206243414255297A80,80,0,0,0,78.70295758767794,-14.347280820844347Z" fill="#f58518" stroke="#222" stroke-opacity="0.2" stroke-width="1"></path><path transform="translate(200,200)" d="M107.64721193765497,-53.029027541994346A120,120,0,0,1,107.92140356572054,-52.468758822797426L71.94760237714702,-34.97917254853162A80,80,0,0,0,71.76480795843665,-35.35268502799623Z" fill="#f58518" stroke="#222" stroke-opacity="0.2" stroke-width="1"></path><path transform="translate(200,200)" d="M110.09737341465934,-47.73435206633752A120,120,0,0,1,110.44694934348975,-46.91983994768745L73.6312995623265,-31.2798932984583A80,80,0,0,0,73.39824894310622,-31.82290137755835Z" fill="#f58518" stroke="#222" stroke-opacity="0.2" stroke-width="1"></path><path transform="translate(200,200)" d="M112.20447638178892,-42.54592201243937A120,120,0,0,1,112.72044712553684,-41.15945577651696L75.1469647503579,-27.43963718434464A80,80,0,0,0,74.80298425452594,-28.363948008292912Z" fill="#f58518" stroke="#222" stroke-opacity="0.2" stroke-width="1"></path><path transform="translate(200,200)" d="M109.74912703517322,-48.52967252122573A120,120,0,0,1,110.09737341465934,-47.73435206633752L73.39824894310622,-31.82290137755835A80,80,0,0,0,73.16608469011548,-32.35311501415048Z" fill="#f58518" stroke="#222" stroke-opacity="0.2" stroke-width="1"></path><path transform="translate(200,200)" d="M43.985987182047204,-66.82239842762888A80,80,0,0,1,56.70438893853594,-56.43236903681469L28.35219446926797,-28.216184518407346A40,40,0,0,0,21.992993591023602,-33.41119921381444Z" fill="#9ecae9" stroke="#222" stroke-opacity="0.2" stroke-width="1"></path><path transform="translate(200,200)" d="M69.16725835750113,-98.06064639449757A120,120,0,0,1,70.5170677006584,-97.0945063476856L47.0113784671056,-64.72967089845707A80,80,0,0,0,46.111505571667415,-65.37376426299838Z" fill="#f58518" stroke="#222" stroke-opacity="0.2" stroke-width="1"></path><path transform="translate(200,200)" d="M65.9789807730708,-100.23359764144334A120,120,0,0,1,66.84333003759556,-99.65926564793197L44.56222002506371,-66.43951043195466A80,80,0,0,0,43.985987182047204,-66.82239842762888Z" fill="#f58518" stroke="#222" stroke-opacity="0.2" stroke-width="1"></path><path transform="translate(200,200)" d="M72.06163728211209,-95.95374110591682A120,120,0,0,1,74.032936345673,-94.4411157072889L49.35529089711533,-62.96074380485926A80,80,0,0,0,48.04109152140806,-63.96916073727788Z" fill="#f58518" stroke="#222" stroke-opacity="0.2" stroke-width="1"></path><path transform="translate(200,200)" d="M74.032936345673,-94.4411157072889A120,120,0,0,1,76.3497088761064,-92.57819373121188L50.89980591740427,-61.71879582080792A80,80,0,0,0,49.35529089711533,-62.96074380485926Z" fill="#f58518" stroke="#222" stroke-opacity="0.2" stroke-width="1"></path><path transform="translate(200,200)" d="M70.5170677006584,-97.0945063476856A120,120,0,0,1,72.06163728211209,-95.95374110591682L48.04109152140806,-63.96916073727788A80,80,0,0,0,47.0113784671056,-64.72967089845707Z" fill="#f58518" stroke="#222" stroke-opacity="0.2" stroke-width="1"></path><path transform="translate(200,200)" d="M78.91588941022539,-90.40067698083394A120,120,0,0,1,81.75019613243218,-87.8459187003521L54.50013075495478,-58.563945800234734A80,80,0,0,0,52.61059294015026,-60.26711798722262Z" fill="#f58518" stroke="#222" stroke-opacity="0.2" stroke-width="1"></path><path transform="translate(200,200)" d="M66.84333003759556,-99.65926564793197A120,120,0,0,1,67.98887458776356,-98.88130729460123L45.32591639184237,-65.92087152973416A80,80,0,0,0,44.56222002506371,-66.43951043195466Z" fill="#f58518" stroke="#222" stroke-opacity="0.2" stroke-width="1"></path><path transform="translate(200,200)" d="M76.3497088761064,-92.57819373121188A120,120,0,0,1,78.91588941022539,-90.40067698083394L52.61059294015026,-60.26711798722262A80,80,0,0,0,50.89980591740427,-61.71879582080792Z" fill="#f58518" stroke="#222" stroke-opacity="0.2" stroke-width="1"></path><path transform="translate(200,200)" d="M67.98887458776356,-98.88130729460123A120,120,0,0,1,69.16725835750113,-98.06064639449757L46.111505571667415,-65.37376426299838A80,80,0,0,0,45.32591639184237,-65.92087152973416Z" fill="#f58518" stroke="#222" stroke-opacity="0.2" stroke-width="1"></path><path transform="translate(200,200)" d="M81.75019613243218,-87.8459187003521A120,120,0,0,1,85.05658340780391,-84.64855355522204L56.70438893853594,-56.43236903681469A80,80,0,0,0,54.50013075495478,-58.563945800234734Z" fill="#f58518" stroke="#222" stroke-opacity="0.2" stroke-width="1"></path><path transform="translate(200,200)" d="M56.64483689219725,56.49214505979012A80,80,0,0,1,-23.532960086692633,76.46044591524516L-11.766480043346316,38.23022295762258A40,40,0,0,0,28.322418446098624,28.24607252989506Z" fill="#9ecae9" stroke="#222" stroke-opacity="0.2" stroke-width="1"></path><path transform="translate(200,200)" d="M64.99538978482157,100.87417561853536A120,120,0,0,1,59.42822627276437,104.25107156318883L39.61881751517625,69.50071437545921A80,80,0,0,0,43.33025985654771,67.24945041235691Z" fill="#f58518" stroke="#222" stroke-opacity="0.2" stroke-width="1"></path><path transform="translate(200,200)" d="M52.917406433526125,107.70212670299972A120,120,0,0,1,45.72992437339415,110.94491433501426L30.486616248929433,73.96327622334285A80,80,0,0,0,35.278270955684086,71.80141780199982Z" fill="#f58518" stroke="#222" stroke-opacity="0.2" stroke-width="1"></path><path transform="translate(200,200)" d="M70.3450014119042,97.21924077238617A120,120,0,0,1,64.99538978482157,100.87417561853536L43.33025985654771,67.24945041235691A80,80,0,0,0,46.89666760793614,64.81282718159078Z" fill="#f58518" stroke="#222" stroke-opacity="0.2" stroke-width="1"></path><path transform="translate(200,200)" d="M20.378936726495066,118.25691919671132A120,120,0,0,1,10.563897851212747,119.53411254612277L7.0425985674751646,79.68940836408184A80,80,0,0,0,13.585957817663378,78.83794613114088Z" fill="#f58518" stroke="#222" stroke-opacity="0.2" stroke-width="1"></path><path transform="translate(200,200)" d="M83.23598939731524,86.43940113773361A120,120,0,0,1,81.90622057710821,87.7004619758305L54.60414705140548,58.466974650553674A80,80,0,0,0,55.49065959821016,57.626267425155746Z" fill="#f58518" stroke="#222" stroke-opacity="0.2" stroke-width="1"></path><path transform="translate(200,200)" d="M37.906829335885234,113.85548862351814A120,120,0,0,1,29.590157001894195,116.29455107013077L19.72677133459613,77.52970071342051A80,80,0,0,0,25.271219557256824,75.90365908234543Z" fill="#f58518" stroke="#222" stroke-opacity="0.2" stroke-width="1"></path><path transform="translate(200,200)" d="M45.72992437339415,110.94491433501426A120,120,0,0,1,37.906829335885234,113.85548862351814L25.271219557256824,75.90365908234543A80,80,0,0,0,30.486616248929433,73.96327622334285Z" fill="#f58518" stroke="#222" stroke-opacity="0.2" stroke-width="1"></path><path transform="translate(200,200)" d="M59.77264873994686,148.41573522578705A160,160,0,0,1,50.54243911451365,151.80731816469086L37.906829335885234,113.85548862351814A120,120,0,0,0,44.82948655496015,111.3118014193403Z" fill="#ffbf79" stroke="#222" stroke-opacity="0.2" stroke-width="1"></path><path transform="translate(200,200)" d="M60.97323249785887,147.9265524466857A160,160,0,0,1,59.77264873994686,148.41573522578705L44.82948655496015,111.3118014193403A120,120,0,0,0,45.72992437339415,110.94491433501426Z" fill="#ffbf79" stroke="#222" stroke-opacity="0.2" stroke-width="1"></path><path transform="translate(200,200)" d="M84.96725533829587,84.73821758968518A120,120,0,0,1,84.78050292421274,84.92506299036553L56.520335282808496,56.61670866024369A80,80,0,0,0,56.64483689219725,56.49214505979012Z" fill="#f58518" stroke="#222" stroke-opacity="0.2" stroke-width="1"></path><path transform="translate(200,200)" d="M84.78050292421274,84.92506299036553A120,120,0,0,1,84.56648860533915,85.13817595510868L56.3776590702261,56.75878397007245A80,80,0,0,0,56.520335282808496,56.61670866024369Z" fill="#f58518" stroke="#222" stroke-opacity="0.2" stroke-width="1"></path><path transform="translate(200,200)" d="M84.56648860533915,85.13817595510868A120,120,0,0,1,84.07610740861877,85.62247463729602L56.05073827241252,57.081649758197344A80,80,0,0,0,56.3776590702261,56.75878397007245Z" fill="#f58518" stroke="#222" stroke-opacity="0.2" stroke-width="1"></path><path transform="translate(200,200)" d="M59.42822627276437,104.25107156318883A120,120,0,0,1,52.917406433526125,107.70212670299972L35.278270955684086,71.80141780199982A80,80,0,0,0,39.61881751517625,69.50071437545921Z" fill="#f58518" stroke="#222" stroke-opacity="0.2" stroke-width="1"></path><path transform="translate(200,200)" d="M76.6528753087729,140.443357646055A160,160,0,0,1,73.71546163313579,142.00715022918277L55.286596224851834,106.50536267188708A120,120,0,0,0,57.48965648157967,105.33251823454124Z" fill="#ffbf79" stroke="#222" stroke-opacity="0.2" stroke-width="1"></path><path transform="translate(200,200)" d="M79.2376350303525,139.00142875091842A160,160,0,0,1,76.6528753087729,140.443357646055L57.48965648157967,105.33251823454124A120,120,0,0,0,59.42822627276437,104.25107156318883Z" fill="#ffbf79" stroke="#222" stroke-opacity="0.2" stroke-width="1"></path><path transform="translate(200,200)" d="M73.71546163313579,142.00715022918277A160,160,0,0,1,70.55654191136817,143.60283560399964L52.917406433526125,107.70212670299972A120,120,0,0,0,55.286596224851834,106.50536267188708Z" fill="#ffbf79" stroke="#222" stroke-opacity="0.2" stroke-width="1"></path><path transform="translate(200,200)" d="M10.563897851212747,119.53411254612277A120,120,0,0,1,-3.383733658033489,119.95228362366217L-2.255822438688993,79.96818908244146A80,80,0,0,0,7.0425985674751646,79.68940836408184Z" fill="#f58518" stroke="#222" stroke-opacity="0.2" stroke-width="1"></path><path transform="translate(200,200)" d="M84.07610740861877,85.62247463729602A120,120,0,0,1,83.23598939731524,86.43940113773361L55.49065959821016,57.626267425155746A80,80,0,0,0,56.05073827241252,57.081649758197344Z" fill="#f58518" stroke="#222" stroke-opacity="0.2" stroke-width="1"></path><path transform="translate(200,200)" d="M29.590157001894195,116.29455107013077A120,120,0,0,1,20.378936726495066,118.25691919671132L13.585957817663378,78.83794613114088A80,80,0,0,0,19.72677133459613,77.52970071342051Z" fill="#f58518" stroke="#222" stroke-opacity="0.2" stroke-width="1"></path><path transform="translate(200,200)" d="M33.74346912556399,156.40133724291525A160,160,0,0,1,27.171915635326755,157.67589226228176L20.378936726495066,118.25691919671132A120,120,0,0,0,25.307601844172996,117.30100293218644Z" fill="#ffbf79" stroke="#222" stroke-opacity="0.2" stroke-width="1"></path><path transform="translate(200,200)" d="M39.45354266919226,155.05940142684102A160,160,0,0,1,38.19995519437107,155.3729816382116L28.649966395778304,116.5297362286587A120,120,0,0,0,29.590157001894195,116.29455107013077Z" fill="#ffbf79" stroke="#222" stroke-opacity="0.2" stroke-width="1"></path><path transform="translate(200,200)" d="M38.19995519437107,155.3729816382116A160,160,0,0,1,36.09421999871263,155.8756147788503L27.070664999034474,116.90671108413773A120,120,0,0,0,28.649966395778304,116.5297362286587Z" fill="#ffbf79" stroke="#222" stroke-opacity="0.2" stroke-width="1"></path><path transform="translate(200,200)" d="M36.09421999871263,155.8756147788503A160,160,0,0,1,33.74346912556399,156.40133724291525L25.307601844172996,117.30100293218644A120,120,0,0,0,27.070664999034474,116.90671108413773Z" fill="#ffbf79" stroke="#222" stroke-opacity="0.2" stroke-width="1"></path><path transform="translate(200,200)" d="M81.90622057710821,87.7004619758305A120,120,0,0,1,78.6485126215789,90.63339043869729L52.43234174771927,60.422260292464856A80,80,0,0,0,54.60414705140548,58.466974650553674Z" fill="#f58518" stroke="#222" stroke-opacity="0.2" stroke-width="1"></path><path transform="translate(200,200)" d="M-3.383733658033489,119.95228362366217A120,120,0,0,1,-18.387490460326973,118.58288322760323L-12.258326973551315,79.05525548506883A80,80,0,0,0,-2.255822438688993,79.96818908244146Z" fill="#f58518" stroke="#222" stroke-opacity="0.2" stroke-width="1"></path><path transform="translate(200,200)" d="M74.671398265307,93.93711876092382A120,120,0,0,1,70.3450014119042,97.21924077238617L46.89666760793614,64.81282718159078A80,80,0,0,0,49.78093217687133,62.62474584061589Z" fill="#f58518" stroke="#222" stroke-opacity="0.2" stroke-width="1"></path><path transform="translate(200,200)" d="M78.6485126215789,90.63339043869729A120,120,0,0,1,74.671398265307,93.93711876092382L49.78093217687133,62.62474584061589A80,80,0,0,0,52.43234174771927,60.422260292464856Z" fill="#f58518" stroke="#222" stroke-opacity="0.2" stroke-width="1"></path><path transform="translate(200,200)" d="M-18.387490460326973,118.58288322760323A120,120,0,0,1,-35.2994401300389,114.69066887286778L-23.532960086692604,76.46044591524517A80,80,0,0,0,-12.258326973551315,79.05525548506883Z" fill="#f58518" stroke="#222" stroke-opacity="0.2" stroke-width="1"></path><path transform="translate(200,200)" d="M-23.532960086692633,76.46044591524516A80,80,0,0,1,-8.575003516577825e-14,-80L-4.2875017582889124e-14,-40A40,40,0,0,0,-11.766480043346316,38.23022295762258Z" fill="#9ecae9" stroke="#222" stroke-opacity="0.2" stroke-width="1"></path><path transform="translate(200,200)" d="M-52.556859876568716,107.8785265004798A120,120,0,0,1,-75.083653148032,93.60793251613896L-50.05576876535467,62.40528834409264A80,80,0,0,0,-35.037906584379144,71.91901766698652Z" fill="#f58518" stroke="#222" stroke-opacity="0.2" stroke-width="1"></path><path transform="translate(200,200)" d="M-71.29074369814587,143.23976355385844A160,160,0,0,1,-72.5136888296622,142.62455935888084L-54.385266622246654,106.96841951916063A120,120,0,0,0,-53.4680577736094,107.42982266539384Z" fill="#ffbf79" stroke="#222" stroke-opacity="0.2" stroke-width="1"></path><path transform="translate(200,200)" d="M-78.72373944355674,139.29311845178495A160,160,0,0,1,-100.11153753070928,124.81057668818531L-75.08365314803197,93.60793251613899A120,120,0,0,0,-59.04280458266755,104.46983883883871Z" fill="#ffbf79" stroke="#222" stroke-opacity="0.2" stroke-width="1"></path><path transform="translate(200,200)" d="M-70.67636513860995,143.54390063946946A160,160,0,0,1,-71.29074369814587,143.23976355385844L-53.4680577736094,107.42982266539384A120,120,0,0,0,-53.007273853957464,107.6579254796021Z" fill="#ffbf79" stroke="#222" stroke-opacity="0.2" stroke-width="1"></path><path transform="translate(200,200)" d="M-70.07581316875829,143.83803533397304A160,160,0,0,1,-70.67636513860995,143.54390063946946L-53.007273853957464,107.6579254796021A120,120,0,0,0,-52.556859876568716,107.8785265004798Z" fill="#ffbf79" stroke="#222" stroke-opacity="0.2" stroke-width="1"></path><path transform="translate(200,200)" d="M-72.5136888296622,142.62455935888084A160,160,0,0,1,-78.72373944355674,139.29311845178495L-59.04280458266755,104.46983883883871A120,120,0,0,0,-54.385266622246654,106.96841951916063Z" fill="#ffbf79" stroke="#222" stroke-opacity="0.2" stroke-width="1"></path><path transform="translate(200,200)" d="M-94.93293557965346,73.4012107681431A120,120,0,0,1,-112.10196275521743,42.81530037764355L-74.73464183681162,28.5435335850957A80,80,0,0,0,-63.28862371976897,48.9341405120954Z" fill="#f58518" stroke="#222" stroke-opacity="0.2" stroke-width="1"></path><path transform="translate(200,200)" d="M-127.92585019933576,96.09878693707381A160,160,0,0,1,-129.26335149871858,94.29202489775436L-96.94751362403895,70.71901867331577A120,120,0,0,0,-95.94438764950182,72.07409020280537Z" fill="#ffbf79" stroke="#222" stroke-opacity="0.2" stroke-width="1"></path><path transform="translate(200,200)" d="M-132.57501665201912,89.57602893473708A160,160,0,0,1,-134.7839098478338,86.2165740802255L-101.08793238587535,64.66243056016913A120,120,0,0,0,-99.43126248901433,67.18202170105282Z" fill="#ffbf79" stroke="#222" stroke-opacity="0.2" stroke-width="1"></path><path transform="translate(200,200)" d="M-127.066369884811,97.232389892959A160,160,0,0,1,-127.92585019933576,96.09878693707381L-95.94438764950182,72.07409020280537A120,120,0,0,0,-95.29977741360824,72.92429241971925Z" fill="#ffbf79" stroke="#222" stroke-opacity="0.2" stroke-width="1"></path><path transform="translate(200,200)" d="M-134.7839098478338,86.2165740802255A160,160,0,0,1,-137.3632191536158,82.04478060032653L-103.02241436521186,61.53358545024489A120,120,0,0,0,-101.08793238587535,64.66243056016913Z" fill="#ffbf79" stroke="#222" stroke-opacity="0.2" stroke-width="1"></path><path transform="translate(200,200)" d="M-129.26335149871858,94.29202489775436A160,160,0,0,1,-130.8851057109466,92.02765401244528L-98.16382928320994,69.02074050933396A120,120,0,0,0,-96.94751362403895,70.71901867331577Z" fill="#ffbf79" stroke="#222" stroke-opacity="0.2" stroke-width="1"></path><path transform="translate(200,200)" d="M-130.8851057109466,92.02765401244528A160,160,0,0,1,-132.57501665201912,89.57602893473708L-99.43126248901433,67.18202170105282A120,120,0,0,0,-98.16382928320994,69.02074050933396Z" fill="#ffbf79" stroke="#222" stroke-opacity="0.2" stroke-width="1"></path><path transform="translate(200,200)" d="M-137.3632191536158,82.04478060032653A160,160,0,0,1,-139.93138021567358,77.58356031361663L-104.9485351617552,58.18767023521248A120,120,0,0,0,-103.02241436521186,61.53358545024489Z" fill="#ffbf79" stroke="#222" stroke-opacity="0.2" stroke-width="1"></path><path transform="translate(200,200)" d="M-126.57724743953794,97.8682810241908A160,160,0,0,1,-127.066369884811,97.232389892959L-95.29977741360824,72.92429241971925A120,120,0,0,0,-94.93293557965346,73.4012107681431Z" fill="#ffbf79" stroke="#222" stroke-opacity="0.2" stroke-width="1"></path><path transform="translate(200,200)" d="M-139.93138021567358,77.58356031361663A160,160,0,0,1,-142.51085312271374,72.73690082919616L-106.88313984203529,54.552675621897116A120,120,0,0,0,-104.9485351617552,58.18767023521248Z" fill="#ffbf79" stroke="#222" stroke-opacity="0.2" stroke-width="1"></path><path transform="translate(200,200)" d="M-142.51085312271374,72.73690082919616A160,160,0,0,1,-146.07697553786943,65.28029731633194L-109.55773165340207,48.96022298724895A120,120,0,0,0,-106.88313984203529,54.552675621897116Z" fill="#ffbf79" stroke="#222" stroke-opacity="0.2" stroke-width="1"></path><path transform="translate(200,200)" d="M-146.07697553786943,65.28029731633194A160,160,0,0,1,-149.46928367362318,57.08706717019154L-112.10196275521739,42.81530037764365A120,120,0,0,0,-109.55773165340207,48.96022298724895Z" fill="#ffbf79" stroke="#222" stroke-opacity="0.2" stroke-width="1"></path><path transform="translate(200,200)" d="M-112.10196275521743,42.81530037764355A120,120,0,0,1,-112.22878235499249,-42.48176563086481L-74.81918823666166,-28.321177087243203A80,80,0,0,0,-74.73464183681162,28.5435335850957Z" fill="#f58518" stroke="#222" stroke-opacity="0.2" stroke-width="1"></path><path transform="translate(200,200)" d="M-155.90054200872078,-35.98640022824022A160,160,0,0,1,-149.63837647332323,-56.64235417448667L-112.22878235499242,-42.481765630865006A120,120,0,0,0,-116.92540650654058,-26.989800171180168Z" fill="#ffbf79" stroke="#222" stroke-opacity="0.2" stroke-width="1"></path><path transform="translate(200,200)" d="M-159.25066748750194,-15.466897063893965A160,160,0,0,1,-155.90054200872078,-35.98640022824022L-116.92540650654058,-26.989800171180168A120,120,0,0,0,-119.43800061562645,-11.600172797920473Z" fill="#ffbf79" stroke="#222" stroke-opacity="0.2" stroke-width="1"></path><path transform="translate(200,200)" d="M-157.62125033211393,27.487114139921474A160,160,0,0,1,-159.12479233931967,16.712284791984388L-119.34359425448974,12.53421359398829A120,120,0,0,0,-118.21593774908546,20.615335604941105Z" fill="#ffbf79" stroke="#222" stroke-opacity="0.2" stroke-width="1"></path><path transform="translate(200,200)" d="M-149.46928367362324,57.0870671701914A160,160,0,0,1,-150.67237977085136,53.8315332698999L-113.00428482813852,40.37364995242493A120,120,0,0,0,-112.10196275521743,42.81530037764355Z" fill="#ffbf79" stroke="#222" stroke-opacity="0.2" stroke-width="1"></path><path transform="translate(200,200)" d="M-159.92534561037718,4.887108695477751A160,160,0,0,1,-159.25066748750194,-15.466897063893965L-119.43800061562645,-11.600172797920473A120,120,0,0,0,-119.94400920778287,3.665331521608313Z" fill="#ffbf79" stroke="#222" stroke-opacity="0.2" stroke-width="1"></path><path transform="translate(200,200)" d="M-153.03357389002144,46.698236181330756A160,160,0,0,1,-155.49338449882003,37.70686114093972L-116.62003837411503,28.28014585570479A120,120,0,0,0,-114.77518041751608,35.023677135998064Z" fill="#ffbf79" stroke="#222" stroke-opacity="0.2" stroke-width="1"></path><path transform="translate(200,200)" d="M-191.42686187968755,57.92889219461242A200,200,0,0,1,-191.69056092547152,57.050230955519275L-153.3524487403772,45.64018476441542A160,160,0,0,0,-153.14148950375002,46.34311375568994Z" fill="#54a24b" stroke="#222" stroke-opacity="0.2" stroke-width="1"></path><path transform="translate(200,200)" d="M-192.51204341095922,54.21358816511738A200,200,0,0,1,-194.36673062352506,47.13357642617465L-155.49338449882003,37.70686114093972A160,160,0,0,0,-154.00963472876737,43.3708705320939Z" fill="#54a24b" stroke="#222" stroke-opacity="0.2" stroke-width="1"></path><path transform="translate(200,200)" d="M-191.2919673625268,58.37279522666344A200,200,0,0,1,-191.42686187968755,57.92889219461242L-153.14148950375002,46.34311375568994A160,160,0,0,0,-153.03357389002144,46.698236181330756Z" fill="#54a24b" stroke="#222" stroke-opacity="0.2" stroke-width="1"></path><path transform="translate(200,200)" d="M-191.69056092547152,57.050230955519275A200,200,0,0,1,-192.51204341095922,54.21358816511738L-154.00963472876737,43.3708705320939A160,160,0,0,0,-153.3524487403772,45.64018476441542Z" fill="#54a24b" stroke="#222" stroke-opacity="0.2" stroke-width="1"></path><path transform="translate(200,200)" d="M-159.12479233931967,16.712284791984388A160,160,0,0,1,-159.92534561037718,4.887108695477751L-119.94400920778287,3.665331521608313A120,120,0,0,0,-119.34359425448974,12.53421359398829Z" fill="#ffbf79" stroke="#222" stroke-opacity="0.2" stroke-width="1"></path><path transform="translate(200,200)" d="M-150.67237977085136,53.8315332698999A160,160,0,0,1,-153.03357389002144,46.698236181330756L-114.77518041751608,35.023677135998064A120,120,0,0,0,-113.00428482813852,40.37364995242493Z" fill="#ffbf79" stroke="#222" stroke-opacity="0.2" stroke-width="1"></path><path transform="translate(200,200)" d="M-155.49338449882003,37.70686114093972A160,160,0,0,1,-157.62125033211393,27.487114139921474L-118.21593774908546,20.615335604941105A120,120,0,0,0,-116.62003837411503,28.28014585570479Z" fill="#ffbf79" stroke="#222" stroke-opacity="0.2" stroke-width="1"></path><path transform="translate(200,200)" d="M-35.29944013003895,114.69066887286775A120,120,0,0,1,-40.544217535537,112.94319999199179L-27.02947835702467,75.29546666132786A80,80,0,0,0,-23.532960086692633,76.46044591524516Z" fill="#f58518" stroke="#222" stroke-opacity="0.2" stroke-width="1"></path><path transform="translate(200,200)" d="M-51.76384215266542,151.3951936013622A160,160,0,0,1,-54.05895671404934,150.59093332265573L-40.544217535537,112.94319999199179A120,120,0,0,0,-38.82288161449907,113.54639520102165Z" fill="#ffbf79" stroke="#222" stroke-opacity="0.2" stroke-width="1"></path><path transform="translate(200,200)" d="M-49.889544480873845,152.023134264134A160,160,0,0,1,-51.76384215266542,151.3951936013622L-38.82288161449907,113.54639520102165A120,120,0,0,0,-37.417158360655385,114.01735069810049Z" fill="#ffbf79" stroke="#222" stroke-opacity="0.2" stroke-width="1"></path><path transform="translate(200,200)" d="M-48.18713443285077,152.57129505627972A160,160,0,0,1,-49.889544480873845,152.023134264134L-37.417158360655385,114.01735069810049A120,120,0,0,0,-36.14035082463808,114.42847129220979Z" fill="#ffbf79" stroke="#222" stroke-opacity="0.2" stroke-width="1"></path><path transform="translate(200,200)" d="M-47.065920173385265,152.92089183049032A160,160,0,0,1,-48.18713443285077,152.57129505627972L-36.14035082463808,114.42847129220979A120,120,0,0,0,-35.29944013003895,114.69066887286775Z" fill="#ffbf79" stroke="#222" stroke-opacity="0.2" stroke-width="1"></path><path transform="translate(200,200)" d="M-75.083653148032,93.60793251613896A120,120,0,0,1,-94.93293557965346,73.4012107681431L-63.28862371976897,48.9341405120954A80,80,0,0,0,-50.05576876535467,62.40528834409264Z" fill="#f58518" stroke="#222" stroke-opacity="0.2" stroke-width="1"></path><path transform="translate(200,200)" d="M-112.0166705406611,114.24651207360769A160,160,0,0,1,-126.57724743953794,97.8682810241908L-94.93293557965346,73.4012107681431A120,120,0,0,0,-84.01250290549582,85.68488405520577Z" fill="#ffbf79" stroke="#222" stroke-opacity="0.2" stroke-width="1"></path><path transform="translate(200,200)" d="M-100.11153753070934,124.81057668818528A160,160,0,0,1,-103.84930159219623,121.71820964347557L-77.88697619414717,91.28865723260668A120,120,0,0,0,-75.083653148032,93.60793251613896Z" fill="#ffbf79" stroke="#222" stroke-opacity="0.2" stroke-width="1"></path><path transform="translate(200,200)" d="M-103.84930159219623,121.71820964347557A160,160,0,0,1,-112.0166705406611,114.24651207360769L-84.01250290549582,85.68488405520577A120,120,0,0,0,-77.88697619414717,91.28865723260668Z" fill="#ffbf79" stroke="#222" stroke-opacity="0.2" stroke-width="1"></path><path transform="translate(200,200)" d="M-112.22878235499249,-42.48176563086481A120,120,0,0,1,-2.2043642384652355e-14,-120L-1.4695761589768237e-14,-80A80,80,0,0,0,-74.81918823666166,-28.321177087243203Z" fill="#f58518" stroke="#222" stroke-opacity="0.2" stroke-width="1"></path><path transform="translate(200,200)" d="M-135.8062380061457,-84.59707866479854A160,160,0,0,1,-127.32055984839593,-96.89930360890642L-95.49041988629695,-72.67447770667982A120,120,0,0,0,-101.85467850460925,-63.44780899859891Z" fill="#ffbf79" stroke="#222" stroke-opacity="0.2" stroke-width="1"></path><path transform="translate(200,200)" d="M-167.3212562340405,-109.56092922325257A200,200,0,0,1,-164.03800333048957,-114.41823920750703L-131.23040266439165,-91.53459136600561A160,160,0,0,0,-133.85700498723241,-87.64874337860206Z" fill="#54a24b" stroke="#222" stroke-opacity="0.2" stroke-width="1"></path><path transform="translate(200,200)" d="M-164.03800333048957,-114.41823920750703A200,200,0,0,1,-159.15069981049493,-121.12412951113302L-127.32055984839593,-96.89930360890642A160,160,0,0,0,-131.23040266439165,-91.53459136600561Z" fill="#54a24b" stroke="#222" stroke-opacity="0.2" stroke-width="1"></path><path transform="translate(200,200)" d="M-169.75779750768208,-105.74634833099819A200,200,0,0,1,-167.3212562340405,-109.56092922325257L-133.85700498723241,-87.64874337860206A160,160,0,0,0,-135.8062380061457,-84.59707866479854Z" fill="#54a24b" stroke="#222" stroke-opacity="0.2" stroke-width="1"></path><path transform="translate(200,200)" d="M-127.32055984839593,-96.89930360890642A160,160,0,0,1,-117.24010842263148,-108.8795526122771L-87.93008131697361,-81.65966445920782A120,120,0,0,0,-95.49041988629695,-72.67447770667982Z" fill="#ffbf79" stroke="#222" stroke-opacity="0.2" stroke-width="1"></path><path transform="translate(200,200)" d="M-156.30657575143286,-124.77281104816697A200,200,0,0,1,-153.66606183421734,-128.01070830349502L-122.93284946737387,-102.40856664279603A160,160,0,0,0,-125.04526060114628,-99.81824883853358Z" fill="#54a24b" stroke="#222" stroke-opacity="0.2" stroke-width="1"></path><path transform="translate(200,200)" d="M-153.66606183421734,-128.01070830349502A200,200,0,0,1,-150.1964239854633,-132.06450780576492L-120.15713918837065,-105.65160624461193A160,160,0,0,0,-122.93284946737387,-102.40856664279603Z" fill="#54a24b" stroke="#222" stroke-opacity="0.2" stroke-width="1"></path><path transform="translate(200,200)" d="M-150.1964239854633,-132.06450780576492A200,200,0,0,1,-146.55013552828936,-136.09944076534637L-117.24010842263148,-108.8795526122771A160,160,0,0,0,-120.15713918837065,-105.65160624461193Z" fill="#54a24b" stroke="#222" stroke-opacity="0.2" stroke-width="1"></path><path transform="translate(200,200)" d="M-159.15069981049493,-121.12412951113302A200,200,0,0,1,-157.7957317429014,-122.88412038877235L-126.23658539432114,-98.30729631101788A160,160,0,0,0,-127.32055984839593,-96.89930360890642Z" fill="#54a24b" stroke="#222" stroke-opacity="0.2" stroke-width="1"></path><path transform="translate(200,200)" d="M-157.7957317429014,-122.88412038877235A200,200,0,0,1,-156.30657575143286,-124.77281104816697L-125.04526060114628,-99.81824883853358A160,160,0,0,0,-126.23658539432114,-98.30729631101788Z" fill="#54a24b" stroke="#222" stroke-opacity="0.2" stroke-width="1"></path><path transform="translate(200,200)" d="M-141.9966126460753,-73.73575792680543A160,160,0,0,1,-135.8062380061457,-84.59707866479854L-101.85467850460925,-63.44780899859891A120,120,0,0,0,-106.49745948455647,-55.301818445104075Z" fill="#ffbf79" stroke="#222" stroke-opacity="0.2" stroke-width="1"></path><path transform="translate(200,200)" d="M-173.2839940634262,-99.86319342694019A200,200,0,0,1,-169.75779750768208,-105.74634833099819L-135.8062380061457,-84.59707866479854A160,160,0,0,0,-138.62719525074095,-79.89055474155215Z" fill="#54a24b" stroke="#222" stroke-opacity="0.2" stroke-width="1"></path><path transform="translate(200,200)" d="M-177.49576580759413,-92.16969740850679A200,200,0,0,1,-175.54050029389413,-95.84118507494236L-140.4324002351153,-76.67294805995388A160,160,0,0,0,-141.9966126460753,-73.73575792680543Z" fill="#54a24b" stroke="#222" stroke-opacity="0.2" stroke-width="1"></path><path transform="translate(200,200)" d="M-175.54050029389413,-95.84118507494236A200,200,0,0,1,-173.2839940634262,-99.86319342694019L-138.62719525074095,-79.89055474155215A160,160,0,0,0,-140.4324002351153,-76.67294805995388Z" fill="#54a24b" stroke="#222" stroke-opacity="0.2" stroke-width="1"></path><path transform="translate(200,200)" d="M-149.63837647332332,-56.64235417448641A160,160,0,0,1,-149.15435835795773,-57.90489947168478L-111.86576876846831,-43.42867460376358A120,120,0,0,0,-112.22878235499249,-42.48176563086481Z" fill="#ffbf79" stroke="#222" stroke-opacity="0.2" stroke-width="1"></path><path transform="translate(200,200)" d="M-117.24010842263148,-108.8795526122771A160,160,0,0,1,-104.32562445432896,-121.31019776677604L-78.24421834074673,-90.98264832508204A120,120,0,0,0,-87.93008131697361,-81.65966445920782Z" fill="#ffbf79" stroke="#222" stroke-opacity="0.2" stroke-width="1"></path><path transform="translate(200,200)" d="M-140.04195202308986,-142.78743527902796A200,200,0,0,1,-130.40703056791122,-151.63774720847005L-104.32562445432896,-121.31019776677604A160,160,0,0,0,-112.0335616184719,-114.22994822322237Z" fill="#54a24b" stroke="#222" stroke-opacity="0.2" stroke-width="1"></path><path transform="translate(200,200)" d="M-143.6541155110585,-139.1527761014327A200,200,0,0,1,-140.04195202308986,-142.78743527902796L-112.0335616184719,-114.22994822322237A160,160,0,0,0,-114.9232924088468,-111.32222088114615Z" fill="#54a24b" stroke="#222" stroke-opacity="0.2" stroke-width="1"></path><path transform="translate(200,200)" d="M-146.55013552828936,-136.09944076534637A200,200,0,0,1,-143.6541155110585,-139.1527761014327L-114.9232924088468,-111.32222088114615A160,160,0,0,0,-117.24010842263148,-108.8795526122771Z" fill="#54a24b" stroke="#222" stroke-opacity="0.2" stroke-width="1"></path><path transform="translate(200,200)" d="M-104.32562445432896,-121.31019776677604A160,160,0,0,1,-2.9391523179536473e-14,-160L-2.2043642384652355e-14,-120A120,120,0,0,0,-78.24421834074673,-90.98264832508204Z" fill="#ffbf79" stroke="#222" stroke-opacity="0.2" stroke-width="1"></path><path transform="translate(200,200)" d="M-109.17221877156831,-167.57513732201693A200,200,0,0,1,-101.66235233307681,-172.2346252009315L-81.32988186646145,-137.7877001607452A160,160,0,0,0,-87.33777501725464,-134.06010985761353Z" fill="#54a24b" stroke="#222" stroke-opacity="0.2" stroke-width="1"></path><path transform="translate(200,200)" d="M-123.53195229015559,-157.28908659974704A200,200,0,0,1,-119.64297752495838,-160.26714550700123L-95.7143820199667,-128.213716405601A160,160,0,0,0,-98.82556183212446,-125.83126927979762Z" fill="#54a24b" stroke="#222" stroke-opacity="0.2" stroke-width="1"></path><path transform="translate(200,200)" d="M-60.215745286562374,-190.7198574338389A200,200,0,0,1,-48.433099471463024,-194.04699141081102L-38.74647957717042,-155.23759312864883A160,160,0,0,0,-48.1725962292499,-152.57588594707113Z" fill="#54a24b" stroke="#222" stroke-opacity="0.2" stroke-width="1"></path><path transform="translate(200,200)" d="M-48.433099471463024,-194.04699141081102A200,200,0,0,1,-32.99243366572821,-197.25997901452925L-26.39394693258257,-157.8079832116234A160,160,0,0,0,-38.74647957717042,-155.23759312864883Z" fill="#54a24b" stroke="#222" stroke-opacity="0.2" stroke-width="1"></path><path transform="translate(200,200)" d="M-119.64297752495838,-160.26714550700123A200,200,0,0,1,-114.47186224469961,-164.00058766428404L-91.57748979575969,-131.20047013142724A160,160,0,0,0,-95.7143820199667,-128.213716405601Z" fill="#54a24b" stroke="#222" stroke-opacity="0.2" stroke-width="1"></path><path transform="translate(200,200)" d="M-92.6100244922263,-177.26641916490908A200,200,0,0,1,-82.67558228226216,-182.11191090724654L-66.14046582580971,-145.68952872579723A160,160,0,0,0,-74.08801959378104,-141.81313533192727Z" fill="#54a24b" stroke="#222" stroke-opacity="0.2" stroke-width="1"></path><path transform="translate(200,200)" d="M-114.47186224469961,-164.00058766428404A200,200,0,0,1,-109.17221877156831,-167.57513732201693L-87.33777501725464,-134.06010985761353A160,160,0,0,0,-91.57748979575969,-131.20047013142724Z" fill="#54a24b" stroke="#222" stroke-opacity="0.2" stroke-width="1"></path><path transform="translate(200,200)" d="M-126.78556192972137,-154.67844480135165A200,200,0,0,1,-123.53195229015559,-157.28908659974704L-98.82556183212446,-125.83126927979762A160,160,0,0,0,-101.42844954377709,-123.74275584108132Z" fill="#54a24b" stroke="#222" stroke-opacity="0.2" stroke-width="1"></path><path transform="translate(200,200)" d="M-101.66235233307681,-172.2346252009315A200,200,0,0,1,-92.6100244922263,-177.26641916490908L-74.08801959378104,-141.81313533192727A160,160,0,0,0,-81.32988186646145,-137.7877001607452Z" fill="#54a24b" stroke="#222" stroke-opacity="0.2" stroke-width="1"></path><path transform="translate(200,200)" d="M-16.894838724190166,-199.2851334758406A200,200,0,0,1,-3.9201077185447074e-13,-200L-3.1360861748357656e-13,-160A160,160,0,0,0,-13.515870979352131,-159.4281067806725Z" fill="#54a24b" stroke="#222" stroke-opacity="0.2" stroke-width="1"></path><path transform="translate(200,200)" d="M-129.53796221592233,-152.38082669727936A200,200,0,0,1,-126.78556192972137,-154.67844480135165L-101.42844954377709,-123.74275584108132A160,160,0,0,0,-103.63036977273786,-121.90466135782347Z" fill="#54a24b" stroke="#222" stroke-opacity="0.2" stroke-width="1"></path><path transform="translate(200,200)" d="M-32.99243366572821,-197.25997901452925A200,200,0,0,1,-16.894838724190166,-199.2851334758406L-13.515870979352131,-159.4281067806725A160,160,0,0,0,-26.39394693258257,-157.8079832116234Z" fill="#54a24b" stroke="#222" stroke-opacity="0.2" stroke-width="1"></path><path transform="translate(200,200)" d="M-130.40703056791122,-151.63774720847005A200,200,0,0,1,-129.53796221592233,-152.38082669727936L-103.63036977273786,-121.90466135782347A160,160,0,0,0,-104.32562445432896,-121.31019776677604Z" fill="#54a24b" stroke="#222" stroke-opacity="0.2" stroke-width="1"></path><path transform="translate(200,200)" d="M-82.67558228226216,-182.11191090724654A200,200,0,0,1,-71.618136504264,-186.73736242020934L-57.29450920341121,-149.38988993616746A160,160,0,0,0,-66.14046582580971,-145.68952872579723Z" fill="#54a24b" stroke="#222" stroke-opacity="0.2" stroke-width="1"></path><path transform="translate(200,200)" d="M-71.618136504264,-186.73736242020934A200,200,0,0,1,-60.215745286562374,-190.7198574338389L-48.1725962292499,-152.57588594707113A160,160,0,0,0,-57.29450920341121,-149.38988993616746Z" fill="#54a24b" stroke="#222" stroke-opacity="0.2" stroke-width="1"></path><path transform="translate(200,200)" d="M-148.37140686198066,-59.88259868940727A160,160,0,0,1,-147.37172949446477,-62.3022740019199L-110.52879712084857,-46.72670550143992A120,120,0,0,0,-111.27855514648549,-44.91194901705545Z" fill="#ffbf79" stroke="#222" stroke-opacity="0.2" stroke-width="1"></path><path transform="translate(200,200)" d="M-144.4546097570641,-68.7958263264155A160,160,0,0,1,-141.9966126460753,-73.73575792680543L-106.49745948455647,-55.301818445104075A120,120,0,0,0,-108.34095731779809,-51.59686974481162Z" fill="#ffbf79" stroke="#222" stroke-opacity="0.2" stroke-width="1"></path><path transform="translate(200,200)" d="M-146.2938743602709,-64.79276444682131A160,160,0,0,1,-144.4546097570641,-68.7958263264155L-108.34095731779809,-51.59686974481162A120,120,0,0,0,-109.72040577020319,-48.59457333511598Z" fill="#ffbf79" stroke="#222" stroke-opacity="0.2" stroke-width="1"></path><path transform="translate(200,200)" d="M-147.37172949446477,-62.3022740019199A160,160,0,0,1,-146.2938743602709,-64.79276444682131L-109.72040577020319,-48.59457333511598A120,120,0,0,0,-110.52879712084857,-46.72670550143992Z" fill="#ffbf79" stroke="#222" stroke-opacity="0.2" stroke-width="1"></path><path transform="translate(200,200)" d="M-149.15435835795773,-57.90489947168478A160,160,0,0,1,-148.37140686198066,-59.88259868940727L-111.27855514648549,-44.91194901705545A120,120,0,0,0,-111.86576876846831,-43.42867460376358Z" fill="#ffbf79" stroke="#222" stroke-opacity="0.2" stroke-width="1"></path><path transform="translate(200,200)" d="M-40.544217535537,112.94319999199179A120,120,0,0,1,-52.556859876568716,107.8785265004798L-35.037906584379144,71.91901766698652A80,80,0,0,0,-27.02947835702467,75.29546666132786Z" fill="#f58518" stroke="#222" stroke-opacity="0.2" stroke-width="1"></path></g></g><path class="foreground" aria-hidden="true" d="" display="none"></path></g></g></g></svg>