<svg xmlns="http://www.w3.org/2000/svg" xmlns:xlink="http://www.w3.org/1999/xlink" version="1.1" class="marks" width="475" height="420" viewBox="0 0 475 420" style="background-color: white;"><g fill="none" stroke-miterlimit="10" transform="translate(10,10)"><g class="mark-group role-frame root" role="graphics-object" aria-roledescription="group mark container"><g transform="translate(0,0)"><path class="background" aria-hidden="true" d="M0,0h400v400h-400Z"></path><g><g class="mark-path role-mark Ma909" role="graphics-symbol" aria-roledescription="path mark container" clip-path="url(#clip1)"><path transform="translate(0,0)" d="M219.54511708465182,162.39391294269714L199.90252681592727,203.85472198183894L145.07906422620482,170.2690191085438L142.80383879769153,163.03764472671276L187.74276251222935,125.5030913658625L189.2235554431334,125.67452470249728Z" fill="#72b7b2" stroke="black" stroke-opacity="0.5" stroke-width="1"></path><path transform="translate(0,0)" d="M250.92457444726776,220.60092697986897L200.79282644202274,207.6070887050773L199.90252681592727,203.85472198183894L219.54511708465182,162.39391294269714L248.27170617141007,155.17048759085134L268.83001571805846,169.84341490156876L271.4414252229742,203.63084867262484Z" fill="#e45756" stroke="black" stroke-opacity="0.5" stroke-width="1"></path><path transform="translate(0,0)" d="M250.92457444726776,220.60092697986897L271.4414252229742,203.63084867262484L314.1193819442189,219.40408990000242L302.37741079335285,257.9221949752708L257.51399738304076,266.33850878092477Z" fill="#e45756" stroke="black" stroke-opacity="0.5" stroke-width="1"></path><path transform="translate(0,0)" d="M187.74276251222935,125.5030913658625L142.80383879769153,163.03764472671276L131.7666451431062,155.74051412084822L119.23815390393077,106.16958238505069L130.28519832857313,90.75568255439684L161.05751226536592,90.76968685084248Z" fill="#4c78a8" stroke="black" stroke-opacity="0.5" stroke-width="1"></path><path transform="translate(0,0)" d="M147.54103541345606,264.0484413409334L119.614544275736,276.984819823759L91.20410134147241,252.10530176221624L103.57813910861312,218.78221990814208L124.66019903833056,213.81883204572188L151.62848580887388,239.5190781017578Z" fill="#72b7b2" stroke="black" stroke-opacity="0.5" stroke-width="1"></path><path transform="translate(0,0)" d="M219.54511708465182,162.39391294269714L189.2235554431334,125.67452470249728L225.29890794183154,95.91542052080965L256.05932574663626,104.13268630466234L256.9801961322189,105.61959358569842L248.27170617141007,155.17048759085134Z" fill="#72b7b2" stroke="black" stroke-opacity="0.5" stroke-width="1"></path><path transform="translate(0,0)" d="M195.51905583833602,218.6112615358342L206.7499960540038,266.8885654136924L180.95791312728986,291.1052473608597L147.54103541345606,264.0484413409334L151.62848580887388,239.5190781017578Z" fill="#f58518" stroke="black" stroke-opacity="0.5" stroke-width="1"></path><path transform="translate(0,0)" d="M195.51905583833602,218.6112615358342L151.62848580887388,239.5190781017578L124.66019903833056,213.81883204572188L145.07906422620482,170.2690191085438L199.90252681592727,203.85472198183894L200.79282644202274,207.6070887050773Z" fill="#e45756" stroke="black" stroke-opacity="0.5" stroke-width="1"></path><path transform="translate(0,0)" d="M250.92457444726776,220.60092697986897L257.51399738304076,266.33850878092477L251.0596043238659,275.64303701581696L206.7499960540038,266.8885654136924L195.51905583833602,218.6112615358342L200.79282644202274,207.6070887050773Z" fill="#e45756" stroke="black" stroke-opacity="0.5" stroke-width="1"></path><path transform="translate(0,0)" d="M124.66019903833056,213.81883204572188L103.57813910861312,218.78221990814208L77.82141868215106,196.18534689817383L89.65596023283797,163.17185451476263L131.7666451431062,155.74051412084822L142.80383879769153,163.03764472671276L145.07906422620482,170.2690191085438Z" fill="#f58518" stroke="black" stroke-opacity="0.5" stroke-width="1"></path><path transform="translate(0,0)" d="M268.83001571805846,169.84341490156876L248.27170617141007,155.17048759085134L256.9801961322189,105.61959358569842L306.00615963473194,118.50205716820585L301.19485421098494,155.60885824539412Z" fill="#e45756" stroke="black" stroke-opacity="0.5" stroke-width="1"></path><path transform="translate(0,0)" d="M251.0596043238659,275.64303701581696L254.22867817251705,299.1391528043507L229.84245355806107,332.6225836060948L180.74084558350978,312.82847166683695L180.95791312728986,291.1052473608597L206.7499960540038,266.8885654136924Z" fill="#72b7b2" stroke="black" stroke-opacity="0.5" stroke-width="1"></path><path transform="translate(0,0)" d="M131.7666451431062,155.74051412084822L89.65596023283797,163.17185451476263L42.985753013184514,112.29074658235567L119.23815390393077,106.16958238505069Z" fill="#4c78a8" stroke="black" stroke-opacity="0.5" stroke-width="1"></path><path transform="translate(0,0)" d="M271.4414252229742,203.63084867262484L268.83001571805846,169.84341490156876L301.19485421098494,155.60885824539412L327.5715646828322,174.50560666280228L317.63233909735374,217.61314217401394L314.1193819442189,219.40408990000242Z" fill="#72b7b2" stroke="black" stroke-opacity="0.5" stroke-width="1"></path><path transform="translate(0,0)" d="M147.54103541345606,264.0484413409334L180.95791312728986,291.1052473608597L180.74084558350978,312.82847166683695L164.56282299605186,327.9206175044484L111.83195198568616,312.1433564903293L119.614544275736,276.984819823759Z" fill="#4c78a8" stroke="black" stroke-opacity="0.5" stroke-width="1"></path><path transform="translate(0,0)" d="M187.74276251222935,125.5030913658625L161.05751226536592,90.76968685084248L199.22277809318214,34.7742275772941L225.29890794183154,95.91542052080965L189.2235554431334,125.67452470249728Z" fill="#72b7b2" stroke="black" stroke-opacity="0.5" stroke-width="1"></path><path transform="translate(0,0)" d="M257.51399738304076,266.33850878092477L302.37741079335285,257.9221949752708L379.21519820556057,355.26951920042495L254.22867817251705,299.1391528043507L251.0596043238659,275.64303701581696Z" fill="#4c78a8" stroke="black" stroke-opacity="0.5" stroke-width="1"></path><path transform="translate(0,0)" d="M0,212.0346534367128L77.82141868215106,196.18534689817383L103.57813910861312,218.78221990814208L91.20410134147241,252.10530176221624L0,278.8464807160259Z" fill="#e45756" stroke="black" stroke-opacity="0.5" stroke-width="1"></path><path transform="translate(0,0)" d="M400,0L400,56.53963565465716L306.00615963473194,118.50205716820585L256.9801961322189,105.61959358569842L256.05932574663626,104.13268630466234L298.7699971307576,0Z" fill="#f58518" stroke="black" stroke-opacity="0.5" stroke-width="1"></path><path transform="translate(0,0)" d="M158.31378971597167,400L164.56282299605186,327.9206175044484L180.74084558350978,312.82847166683695L229.84245355806107,332.6225836060948L244.49706526561351,400Z" fill="#72b7b2" stroke="black" stroke-opacity="0.5" stroke-width="1"></path><path transform="translate(0,0)" d="M0,0L96.13938376422294,0L130.28519832857313,90.75568255439684L119.23815390393077,106.16958238505069L42.985753013184514,112.29074658235567L0,95.9000561657131Z" fill="#72b7b2" stroke="black" stroke-opacity="0.5" stroke-width="1"></path><path transform="translate(0,0)" d="M400,240.64769658887684L317.63233909735374,217.61314217401394L327.5715646828322,174.50560666280228L400,145.5717483850247Z" fill="#72b7b2" stroke="black" stroke-opacity="0.5" stroke-width="1"></path><path transform="translate(0,0)" d="M0,278.8464807160259L91.20410134147241,252.10530176221624L119.614544275736,276.984819823759L111.83195198568616,312.1433564903293L0,388.78789018308174Z" fill="#4c78a8" stroke="black" stroke-opacity="0.5" stroke-width="1"></path><path transform="translate(0,0)" d="M298.7699971307576,0L256.05932574663626,104.13268630466234L225.29890794183154,95.91542052080965L199.22277809318214,34.7742275772941L202.3531442273131,0Z" fill="#f58518" stroke="black" stroke-opacity="0.5" stroke-width="1"></path><path transform="translate(0,0)" d="M400,400L244.49706526561351,400L229.84245355806107,332.6225836060948L254.22867817251705,299.1391528043507L379.21519820556057,355.26951920042495L400,371.77737187784584Z" fill="#e45756" stroke="black" stroke-opacity="0.5" stroke-width="1"></path><path transform="translate(0,0)" d="M0,95.9000561657131L42.985753013184514,112.29074658235567L89.65596023283797,163.17185451476263L77.82141868215106,196.18534689817383L0,212.0346534367128Z" fill="#f58518" stroke="black" stroke-opacity="0.5" stroke-width="1"></path><path transform="translate(0,0)" d="M400,145.5717483850247L327.5715646828322,174.50560666280228L301.19485421098494,155.60885824539412L306.00615963473194,118.50205716820585L400,56.53963565465716Z" fill="#f58518" stroke="black" stroke-opacity="0.5" stroke-width="1"></path><path transform="translate(0,0)" d="M0,400L0,388.78789018308174L111.83195198568616,312.1433564903293L164.56282299605186,327.9206175044484L158.31378971597167,400Z" fill="#e45756" stroke="black" stroke-opacity="0.5" stroke-width="1"></path><path transform="translate(0,0)" d="M202.3531442273131,0L199.22277809318214,34.7742275772941L161.05751226536592,90.76968685084248L130.28519832857313,90.75568255439684L96.13938376422294,0Z" fill="#f58518" stroke="black" stroke-opacity="0.5" stroke-width="1"></path><path transform="translate(0,0)" d="M400,371.77737187784584L379.21519820556057,355.26951920042495L302.37741079335285,257.9221949752708L314.1193819442189,219.40408990000242L317.63233909735374,217.61314217401394L400,240.64769658887684Z" fill="#72b7b2" stroke="black" stroke-opacity="0.5" stroke-width="1"></path></g><g class="mark-group role-legend" role="graphics-symbol" aria-roledescription="legend" aria-label="Symbol legend titled 'color' for fill color with 4 values: A, B, C, D"><g transform="translate(418,0)"><path class="background" aria-hidden="true" d="M0,0h37v70h-37Z" pointer-events="none"></path><g><g class="mark-group role-legend-entry"><g transform="translate(0,20)"><path class="background" aria-hidden="true" d="M0,0h0v0h0Z" pointer-events="none"></path><g><g class="mark-group role-scope" role="graphics-object" aria-roledescription="group mark container"><g transform="translate(0,0)"><path class="background" aria-hidden="true" d="M0,0h23.2216796875v11h-23.2216796875Z" pointer-events="none" opacity="1"></path><g><g class="mark-symbol role-legend-symbol" pointer-events="none"><path transform="translate(6,6)" d="M5,0A5,5,0,1,1,-5,0A5,5,0,1,1,5,0" fill="#4c78a8" stroke-width="1.5" opacity="1"></path></g><g class="mark-text role-legend-label" pointer-events="none"><text text-anchor="start" transform="translate(16,9)" font-family="sans-serif" font-size="10px" fill="#000" opacity="1">A</text></g></g><path class="foreground" aria-hidden="true" d="" pointer-events="none" display="none"></path></g><g transform="translate(0,13)"><path class="background" aria-hidden="true" d="M0,0h23.2216796875v11h-23.2216796875Z" pointer-events="none" opacity="1"></path><g><g class="mark-symbol role-legend-symbol" pointer-events="none"><path transform="translate(6,6)" d="M5,0A5,5,0,1,1,-5,0A5,5,0,1,1,5,0" fill="#f58518" stroke-width="1.5" opacity="1"></path></g><g class="mark-text role-legend-label" pointer-events="none"><text text-anchor="start" transform="translate(16,9)" font-family="sans-serif" font-size="10px" fill="#000" opacity="1">B</text></g></g><path class="foreground" aria-hidden="true" d="" pointer-events="none" display="none"></path></g><g transform="translate(0,26)"><path class="background" aria-hidden="true" d="M0,0h23.2216796875v11h-23.2216796875Z" pointer-events="none" opacity="1"></path><g><g class="mark-symbol role-legend-symbol" pointer-events="none"><path transform="translate(6,6)" d="M5,0A5,5,0,1,1,-5,0A5,5,0,1,1,5,0" fill="#e45756" stroke-width="1.5" opacity="1"></path></g><g class="mark-text role-legend-label" pointer-events="none"><text text-anchor="start" transform="translate(16,9)" font-family="sans-serif" font-size="10px" fill="#000" opacity="1">C</text></g></g><path class="foreground" aria-hidden="true" d="" pointer-events="none" display="none"></path></g><g transform="translate(0,39)"><path class="background" aria-hidden="true" d="M0,0h23.2216796875v11h-23.2216796875Z" pointer-events="none" opacity="1"></path><g><g class="mark-symbol role-legend-symbol" pointer-events="none"><path transform="translate(6,6)" d="M5,0A5,5,0,1,1,-5,0A5,5,0,1,1,5,0" fill="#72b7b2" stroke-width="1.5" opacity="1"></path></g><g class="mark-text role-legend-label" pointer-events="none"><text text-anchor="start" transform="translate(16,9)" font-family="sans-serif" font-size="10px" fill="#000" opacity="1">D</text></g></g><path class="foreground" aria-hidden="true" d="" pointer-events="none" display="none"></path></g></g></g><path class="foreground" aria-hidden="true" d="" pointer-events="none" display="none"></path></g></g><g class="mark-text role-legend-title" pointer-events="none"><text text-anchor="start" transform="translate(0,12)" font-family="sans-serif" font-size="15px" font-weight="bold" fill="#000" opacity="1">color</text></g></g><path class="foreground" aria-hidden="true" d="" pointer-events="none" display="none"></path></g></g><g class="mark-symbol role-mark Ma908" role="graphics-symbol" aria-roledescription="symbol mark container" clip-path="url(#clip2)"><path transform="translate(184.98544673744507,162.44469010927298)" d="M1.5811388300841898,0A1.5811388300841898,1.5811388300841898,0,1,1,-1.5811388300841898,0A1.5811388300841898,1.5811388300841898,0,1,1,1.5811388300841898,0" fill="black"></path><path transform="translate(241.39539340754635,189.16962614405563)" d="M1.5811388300841898,0A1.5811388300841898,1.5811388300841898,0,1,1,-1.5811388300841898,0A1.5811388300841898,1.5811388300841898,0,1,1,1.5811388300841898,0" fill="black"></path><path transform="translate(280.0109575574702,235.85590259721164)" d="M1.5811388300841898,0A1.5811388300841898,1.5811388300841898,0,1,1,-1.5811388300841898,0A1.5811388300841898,1.5811388300841898,0,1,1,1.5811388300841898,0" fill="black"></path><path transform="translate(150.90077967137202,121.63620523423201)" d="M1.5811388300841898,0A1.5811388300841898,1.5811388300841898,0,1,1,-1.5811388300841898,0A1.5811388300841898,1.5811388300841898,0,1,1,1.5811388300841898,0" fill="black"></path><path transform="translate(121.74105860563854,245.57109354909647)" d="M1.5811388300841898,0A1.5811388300841898,1.5811388300841898,0,1,1,-1.5811388300841898,0A1.5811388300841898,1.5811388300841898,0,1,1,1.5811388300841898,0" fill="black"></path><path transform="translate(226.13161807348533,128.46764881662008)" d="M1.5811388300841898,0A1.5811388300841898,1.5811388300841898,0,1,1,-1.5811388300841898,0A1.5811388300841898,1.5811388300841898,0,1,1,1.5811388300841898,0" fill="black"></path><path transform="translate(177.93851068760102,254.9355558669374)" d="M1.5811388300841898,0A1.5811388300841898,1.5811388300841898,0,1,1,-1.5811388300841898,0A1.5811388300841898,1.5811388300841898,0,1,1,1.5811388300841898,0" fill="black"></path><path transform="translate(156.23519137106115,209.37503292419692)" d="M1.5811388300841898,0A1.5811388300841898,1.5811388300841898,0,1,1,-1.5811388300841898,0A1.5811388300841898,1.5811388300841898,0,1,1,1.5811388300841898,0" fill="black"></path><path transform="translate(227.3272806134689,243.4460509068812)" d="M1.5811388300841898,0A1.5811388300841898,1.5811388300841898,0,1,1,-1.5811388300841898,0A1.5811388300841898,1.5811388300841898,0,1,1,1.5811388300841898,0" fill="black"></path><path transform="translate(107.8818671478115,186.70398241648638)" d="M1.5811388300841898,0A1.5811388300841898,1.5811388300841898,0,1,1,-1.5811388300841898,0A1.5811388300841898,1.5811388300841898,0,1,1,1.5811388300841898,0" fill="black"></path><path transform="translate(278.18980900307247,137.6167921810372)" d="M1.5811388300841898,0A1.5811388300841898,1.5811388300841898,0,1,1,-1.5811388300841898,0A1.5811388300841898,1.5811388300841898,0,1,1,1.5811388300841898,0" fill="black"></path><path transform="translate(216.865836832893,296.3952746775093)" d="M1.5811388300841898,0A1.5811388300841898,1.5811388300841898,0,1,1,-1.5811388300841898,0A1.5811388300841898,1.5811388300841898,0,1,1,1.5811388300841898,0" fill="black"></path><path transform="translate(98.72629626060156,134.82271465479826)" d="M1.5811388300841898,0A1.5811388300841898,1.5811388300841898,0,1,1,-1.5811388300841898,0A1.5811388300841898,1.5811388300841898,0,1,1,1.5811388300841898,0" fill="black"></path><path transform="translate(298.9084964828371,184.7244745813266)" d="M1.5811388300841898,0A1.5811388300841898,1.5811388300841898,0,1,1,-1.5811388300841898,0A1.5811388300841898,1.5811388300841898,0,1,1,1.5811388300841898,0" fill="black"></path><path transform="translate(144.95144962847246,295.67667603980067)" d="M1.5811388300841898,0A1.5811388300841898,1.5811388300841898,0,1,1,-1.5811388300841898,0A1.5811388300841898,1.5811388300841898,0,1,1,1.5811388300841898,0" fill="black"></path><path transform="translate(193.49880927709344,88.90865963586128)" d="M1.5811388300841898,0A1.5811388300841898,1.5811388300841898,0,1,1,-1.5811388300841898,0A1.5811388300841898,1.5811388300841898,0,1,1,1.5811388300841898,0" fill="black"></path><path transform="translate(289.5294771845346,286.59465722828145)" d="M1.5811388300841898,0A1.5811388300841898,1.5811388300841898,0,1,1,-1.5811388300841898,0A1.5811388300841898,1.5811388300841898,0,1,1,1.5811388300841898,0" fill="black"></path><path transform="translate(72.33280900368803,227.2240646260168)" d="M1.5811388300841898,0A1.5811388300841898,1.5811388300841898,0,1,1,-1.5811388300841898,0A1.5811388300841898,1.5811388300841898,0,1,1,1.5811388300841898,0" fill="black"></path><path transform="translate(291.179663349899,88.18213855040581)" d="M1.5811388300841898,0A1.5811388300841898,1.5811388300841898,0,1,1,-1.5811388300841898,0A1.5811388300841898,1.5811388300841898,0,1,1,1.5811388300841898,0" fill="black"></path><path transform="translate(195.3686993963181,349.7214364282812)" d="M1.5811388300841898,0A1.5811388300841898,1.5811388300841898,0,1,1,-1.5811388300841898,0A1.5811388300841898,1.5811388300841898,0,1,1,1.5811388300841898,0" fill="black"></path><path transform="translate(94.41815599827068,81.15546643403451)" d="M1.5811388300841898,0A1.5811388300841898,1.5811388300841898,0,1,1,-1.5811388300841898,0A1.5811388300841898,1.5811388300841898,0,1,1,1.5811388300841898,0" fill="black"></path><path transform="translate(348.8664905761607,196.24319786724493)" d="M1.5811388300841898,0A1.5811388300841898,1.5811388300841898,0,1,1,-1.5811388300841898,0A1.5811388300841898,1.5811388300841898,0,1,1,1.5811388300841898,0" fill="black"></path><path transform="translate(88.75600710951973,283.23741493426724)" d="M1.5811388300841898,0A1.5811388300841898,1.5811388300841898,0,1,1,-1.5811388300841898,0A1.5811388300841898,1.5811388300841898,0,1,1,1.5811388300841898,0" fill="black"></path><path transform="translate(242.25408144399253,68.11500569121515)" d="M1.5811388300841898,0A1.5811388300841898,1.5811388300841898,0,1,1,-1.5811388300841898,0A1.5811388300841898,1.5811388300841898,0,1,1,1.5811388300841898,0" fill="black"></path><path transform="translate(268.30391788482643,333.85800081499053)" d="M1.5811388300841898,0A1.5811388300841898,1.5811388300841898,0,1,1,-1.5811388300841898,0A1.5811388300841898,1.5811388300841898,0,1,1,1.5811388300841898,0" fill="black"></path><path transform="translate(60.63066602304036,169.76556534335188)" d="M1.5811388300841898,0A1.5811388300841898,1.5811388300841898,0,1,1,-1.5811388300841898,0A1.5811388300841898,1.5811388300841898,0,1,1,1.5811388300841898,0" fill="black"></path><path transform="translate(328.0277638321994,144.07883189928302)" d="M1.5811388300841898,0A1.5811388300841898,1.5811388300841898,0,1,1,-1.5811388300841898,0A1.5811388300841898,1.5811388300841898,0,1,1,1.5811388300841898,0" fill="black"></path><path transform="translate(130.46467284955523,344.09448170337134)" d="M1.5811388300841898,0A1.5811388300841898,1.5811388300841898,0,1,1,-1.5811388300841898,0A1.5811388300841898,1.5811388300841898,0,1,1,1.5811388300841898,0" fill="black"></path><path transform="translate(150.92887820934033,59.89393671813898)" d="M1.5811388300841898,0A1.5811388300841898,1.5811388300841898,0,1,1,-1.5811388300841898,0A1.5811388300841898,1.5811388300841898,0,1,1,1.5811388300841898,0" fill="black"></path><path transform="translate(333.24991578078516,252.08542142579256)" d="M1.5811388300841898,0A1.5811388300841898,1.5811388300841898,0,1,1,-1.5811388300841898,0A1.5811388300841898,1.5811388300841898,0,1,1,1.5811388300841898,0" fill="black"></path></g></g><path class="foreground" aria-hidden="true" d="" display="none"></path></g></g></g><defs><clipPath id="clip1"><rect x="0" y="0" width="400" height="400"></rect></clipPath><clipPath id="clip2"><rect x="0" y="0" width="400" height="400"></rect></clipPath></defs></svg>